<?xml version="1.0" encoding="utf-8"?>
<!-- Generator: Adobe Illustrator 21.1.0, SVG Export Plug-In . SVG Version: 6.00 Build 0)  -->
<svg version="1.1" id="Layer_1" xmlns="http://www.w3.org/2000/svg" xmlns:xlink="http://www.w3.org/1999/xlink" x="0px" y="0px"
	 viewBox="0 0 54 64.2" style="enable-background:new 0 0 54 64.2;" xml:space="preserve">
<style type="text/css">
	.st0{fill:#212121;}
</style>
<path class="st0" d="M27.5,62.3c13.8,0,25.1-11.3,25.1-25.1c0-6.6-2.6-12.7-6.8-17.1c2-3.3,4.4-7.8,4.4-10.3c0-4.4-3.6-8-8-8
	s-8,3.6-8,8c0,0.9,0.3,2.2,0.9,3.5c-2.4-0.8-5-1.2-7.6-1.2c-4.7,0-9.1,1.3-12.8,3.5c-1.2-2-3.3-3.3-5.7-3.3c-3.7,0-6.7,3-6.7,6.7
	c0,1.7,1.4,4.5,2.8,7c-1.7,3.4-2.6,7.2-2.6,11.2C2.4,51,13.7,62.3,27.5,62.3z M13.1,38.4c0.1,2.6,0.8,5.2,1.8,7.8
	c-2.4,0.9-4.5,2.1-6.3,3.6c-2.2-3.3-3.5-7.2-3.8-11.4H13.1z M16.7,30c3,1,6.2,1.6,9.6,1.7V36H15.5C15.6,33.9,16.1,31.9,16.7,30z
	 M39.6,36H28.7v-4.2c3.4,0,6.7-0.5,9.7-1.4C39,32.2,39.5,34.1,39.6,36z M38,45c-2.9-0.8-6.1-1.2-9.3-1.2v-5.4h10.9
	C39.4,40.7,38.9,42.9,38,45z M15.5,38.4h10.9v5.4c-3.2,0.2-6.3,0.7-9.2,1.6C16.3,43.2,15.6,40.8,15.5,38.4z M26.3,46.2v11.9
	c-2.2-2-5.7-5.8-8.1-10.5C20.7,46.8,23.5,46.3,26.3,46.2z M28.7,58.1v-12c2.9,0,5.7,0.4,8.3,1.1C34.6,52.1,30.9,56,28.7,58.1z
	 M28.7,29.4V16.1c2.4,2.3,6.4,6.7,8.8,12.1C34.8,29,31.8,29.4,28.7,29.4z M26.3,16.1v13.3c-3.1-0.2-6-0.7-8.7-1.5
	C20.1,22.6,24,18.3,26.3,16.1z M10,51.6L10,51.6c1.7-1.3,3.7-2.4,5.9-3.3c1.1,2.1,2.4,4.2,4,6.3c1.7,2.1,3.3,3.9,4.6,5.1
	C18.7,58.9,13.6,56,10,51.6z M30.5,59.7c1.3-1.2,2.9-2.9,4.6-5.1c1.7-2.2,3.2-4.5,4.3-6.7c2.3,0.8,4.4,1.8,6.2,3.1
	C42,55.6,36.6,58.9,30.5,59.7z M46.9,49c-1.9-1.3-4.2-2.4-6.6-3.3c1-2.5,1.5-4.9,1.7-7.3h8.2C50,42.2,48.8,45.9,46.9,49z M42,36
	c-0.1-2-0.5-4.1-1.3-6.3c2.5-0.9,4.8-2.1,6.7-3.5c1.6,2.9,2.6,6.2,2.8,9.8H42z M47.9,9.7c0,1.7-1.8,5.3-3.8,8.6
	c-0.4,0.7-0.9,1.4-1.3,2.1c-0.2,0.3-0.4,0.6-0.5,0.8c-0.5-0.8-1.1-1.7-1.6-2.6c-0.8-1.4-1.6-2.8-2.3-4.1c-1-2-1.7-3.8-1.7-4.8
	c0-3.1,2.5-5.6,5.6-5.6C45.4,4.1,47.9,6.6,47.9,9.7z M36.6,16.4c1.9,3.6,4.3,7.1,4.7,7.7c0.2,0.3,0.6,0.5,1,0.5s0.8-0.2,1-0.5
	c0.2-0.2,0.6-0.9,1.3-1.9c0.6,0.7,1.1,1.3,1.6,2.1c-1.8,1.3-3.9,2.5-6.3,3.3c-1.1-2.6-2.7-5.3-4.7-7.9c-1.6-2.1-3.2-3.7-4.4-5
	C32.8,15,34.7,15.5,36.6,16.4z M24.4,14.7c-1.2,1.2-2.8,2.9-4.4,5c-1.9,2.4-3.4,4.9-4.5,7.4c-0.9-0.4-1.7-0.7-2.5-1.2
	c1.8-3.2,2.7-5.4,2.7-6.8c0-0.4,0-0.8-0.1-1.1C18.2,16.2,21.2,15.1,24.4,14.7z M9,14.7c1.6,0,3,0.9,3.8,2.2c0.3,0.6,0.5,1.3,0.5,2.1
	c0,0.1,0,0.3-0.1,0.6c-0.2,1-0.9,2.7-2.2,5c-0.4,0.6-0.8,1.3-1.2,2.1C9.5,27,9.2,27.4,9,27.9c-0.4-0.7-0.8-1.3-1.2-1.9
	c-0.5-0.9-1-1.7-1.3-2.4c-1.2-2.4-1.8-4-1.8-4.6C4.7,16.6,6.6,14.7,9,14.7z M6.5,28.5c0.7,1.1,1.3,1.9,1.4,2.2
	c0.2,0.3,0.6,0.5,1,0.5s0.8-0.2,1-0.5c0-0.1,0.8-1.2,1.8-2.8c0.9,0.5,1.8,0.9,2.8,1.3c-0.8,2.3-1.3,4.6-1.4,6.8H4.8
	C5,33.3,5.6,30.8,6.5,28.5z"/>
</svg>
