<?xml version="1.0" encoding="utf-8"?>
<!-- Generator: Adobe Illustrator 21.1.0, SVG Export Plug-In . SVG Version: 6.00 Build 0)  -->
<svg version="1.1" id="Layer_1" xmlns="http://www.w3.org/2000/svg" xmlns:xlink="http://www.w3.org/1999/xlink" x="0px" y="0px"
	 viewBox="0 0 61.2 56.7" style="enable-background:new 0 0 61.2 56.7;" xml:space="preserve">
<style type="text/css">
	.st0{fill:#212121;}
</style>
<g>
	<path class="st0" d="M51.9,24.3v-3.7v-0.1C51.4,16.1,49,12,45.2,8.9c-3.9-3.1-9.1-4.8-14.6-4.8c-5.6,0-10.4,1.5-14.1,4.6
		c-3.5,2.8-5.9,6.8-7.1,11.6c0,0.1,0,0.2,0,0.3v3.7c-3.7,0.4-6.6,2.9-6.6,5.9v3.2c0,3.1,3,5.6,6.8,5.9c0.3,2.3,1.5,4.3,3.2,5.6v5.5
		c0,0.6,0.5,1.1,1.1,1.1S15,51,15,50.4l0,0v-4.3c1,0.4,2,0.6,3.1,0.6h1.5c1.2,1.5,2.6,2.8,4.3,3.8c2.1,1.2,4.6,2,7.2,2
		s5-0.7,7.1-1.9c4.6-2.6,7.7-7.7,7.7-13.6v-8.5l0,0c0,0,0,0,0-0.1l0,0c0,0,0,0,0-0.1l0,0c0,0,0,0,0-0.1l0,0l0,0c0,0,0,0,0-0.1l0,0
		c0,0,0,0,0-0.1l0,0c0,0,0,0,0-0.1l0,0l0,0l0,0l0,0l0,0l0,0c0,0,0,0-0.1,0l0,0l0,0l0,0l0,0c0,0,0,0-0.1,0l0,0c0,0,0,0-0.1,0l0,0
		c0,0,0,0-0.1,0l0,0c-1.1-0.2-2.5-0.7-4.1-1.4c-4.2-1.8-9.1-4.6-9.2-4.7c-0.4-0.2-0.8-0.2-1.2,0.1c-3.1,2.4-6.4,3.8-8.9,4.7
		c-2.4,0.8-4,1.1-4,1.1c-0.2,0-0.4,0.1-0.5,0.2c-0.5,0.1-0.8,0.5-0.8,1V37c0,2.8,0.7,5.4,1.9,7.6h-0.1c-1.1,0-2.2-0.3-3.1-0.8V26.2
		v-0.5c0-8,7.2-14.5,16-14.5s16,6.5,16,14.5V26v24.7l0,0c0,0.6,0.5,1.1,1.1,1.1s1.1-0.5,1.1-1.1V26v-0.3c0-9.2-8.1-16.6-18.1-16.6
		s-18.1,7.5-18.1,16.6v0.5V42c-0.7-1-1.2-2.3-1.2-3.7c0-0.2,0-0.3-0.1-0.5V26.4c0-0.1,0-0.1,0-0.2l0,0v-5.4
		c1.1-4.3,3.3-7.8,6.3-10.3c3.4-2.7,7.7-4.1,12.8-4.1c5,0,9.8,1.5,13.3,4.3c3.3,2.6,5.4,6.2,5.8,10.1V26l0,0v0.1v12.2
		c0,0.6,0.5,1.1,1.1,1.1l0,0h0.1c4.1,0,7.5-2.7,7.5-5.9v-3.2C58.5,27.2,55.6,24.7,51.9,24.3z M18.2,37v-7.8c0.6-0.1,1.9-0.4,3.5-0.9
		c1.5-0.5,3.3-1.2,5.2-2.2c1.3-0.7,2.7-1.5,4.1-2.5c0.9,0.5,2.7,1.5,4.7,2.5c1.7,0.8,3.6,1.7,5.3,2.4c0.9,0.4,1.8,0.7,2.6,0.9V37
		c0,7.4-5.7,13.3-12.7,13.3c-3.3,0-6.4-1.4-8.6-3.6h1.6c0.4,0.8,1.3,1.4,2.3,1.4h3c1.5,0,2.6-1.2,2.6-2.6c0-1.5-1.2-2.6-2.6-2.6h-3
		c-1.1,0-2.1,0.7-2.5,1.8h-3.2C19,42.5,18.2,39.8,18.2,37z M56.3,33.5c0,1.9-1.9,3.4-4.5,3.7V26.5c2.5,0.3,4.5,1.9,4.5,3.7V33.5z
		 M4.9,30.2c0-1.9,1.9-3.4,4.5-3.7v10.7c-2.5-0.3-4.5-1.9-4.5-3.7C4.9,33.5,4.9,30.2,4.9,30.2z"/>
</g>
</svg>
