<?xml version="1.0" encoding="utf-8"?>
<!-- Generator: Adobe Illustrator 21.1.0, SVG Export Plug-In . SVG Version: 6.00 Build 0)  -->
<svg version="1.1" id="Layer_1" xmlns="http://www.w3.org/2000/svg" xmlns:xlink="http://www.w3.org/1999/xlink" x="0px" y="0px"
	 viewBox="0 0 68.7 66.3" style="enable-background:new 0 0 68.7 66.3;" xml:space="preserve">
<style type="text/css">
	.st0{fill:#212121;}
</style>
<path class="st0" d="M39.4,36.9H27.4v1.8h11.9V36.9z M27.4,50.5h9.9v-1.8h-9.9V50.5z M38.6,8.1h-3.7V7.2c0-2.8-2.2-5-5-5
	c-2.8,0-5,2.3-5,5v0.9h-3.7v9.2h17.5V8.1z M32.4,8.1h-5.1V7.2c0-1.4,1.1-2.6,2.5-2.6c1.4,0,2.5,1.2,2.5,2.6V8.1z M41.3,25.1H27.4
	v1.8h13.9V25.1z M23,34.9h-5.7v5.8H23V34.9z M51.7,35.6V9.7H41.2v3.1h7.4v22.8c-5,0.8-8.8,5.1-8.8,10.3c0,5.2,3.8,9.5,8.8,10.3v4.9
	H11.2V12.8h7.3V9.7H8.1v54.4h43.5v-8c5-0.7,8.9-5.1,8.9-10.3C60.5,40.7,56.7,36.4,51.7,35.6z M50.1,53.2c-4,0-7.3-3.3-7.3-7.3
	c0-4,3.3-7.3,7.3-7.3c4,0,7.3,3.3,7.3,7.3C57.4,49.9,54.2,53.2,50.1,53.2z M48.6,47.5L46,45l-1.3,1.3l3.9,3.7l6.5-6.5l-1.3-1.3
	L48.6,47.5z M23,23.1h-5.7v5.8H23V23.1z M17.3,52.4H23v-5.8h-5.7V52.4z"/>
</svg>
