<?xml version="1.0" encoding="utf-8"?>
<!-- Generator: Adobe Illustrator 21.1.0, SVG Export Plug-In . SVG Version: 6.00 Build 0)  -->
<svg version="1.1" id="Layer_1" xmlns="http://www.w3.org/2000/svg" xmlns:xlink="http://www.w3.org/1999/xlink" x="0px" y="0px"
	 viewBox="0 0 77 86" style="enable-background:new 0 0 77 86;" xml:space="preserve">
<style type="text/css">
	.st0{fill:#F7323F;}
</style>
<path class="st0" d="M67.9,51.1c-2.2-2-4.8-0.7-5.8,0.2c-1.4,1.3-3.2,2.7-4.3,3.5c-0.2-0.6-0.6-1.1-1-1.5c-1.7-1.6-4.2-1.5-4.5-1.5
	c-1.7,0.1-6.3,0.4-8.1,0c-1.2-0.2-4.7-2.4-7.1-3.8c-2.4-1.4-3.9-2.3-4.7-2.6c-1.7-0.6-6.8-0.9-9.3-1.1v-3.4H7.8v24.4h15.3v-2.7
	c0.3,0.1,0.6,0.2,0.9,0.5c2.6,2.2,12.6,7,19.5,7c0.2,0,0.4,0,0.6,0c7.1-0.3,14.3-3.2,19.1-7.8c2.5-2.3,4.5-4.8,4.5-4.9
	C69.3,55.6,69.9,52.9,67.9,51.1z M20,62.1h-9.1V44H20V62.1z M65.4,55.4c0,0-1.9,2.4-4.3,4.6C56.8,64,50.4,66.6,44,66.9
	c-5.8,0.2-15.6-4.3-18-6.3c-1-0.8-2.1-1.1-2.9-1.2v-12c3.1,0.2,7.2,0.5,8.2,0.9c0.6,0.2,2.5,1.4,4.2,2.4c3.7,2.2,6.5,3.8,8,4.2
	c2.5,0.5,8.1,0.1,9,0c0.4,0,1.6,0.1,2.2,0.7c0.2,0.2,0.4,0.5,0.4,1.2c0,1.9-1.5,2.1-2.1,2.1H39.6c-0.9,0-1.5,0.7-1.5,1.5
	c0,0.9,0.7,1.5,1.5,1.5H53c1.8,0,4.3-1.1,5-3.7c1.5-0.7,4.4-3.1,6.1-4.6c0.2-0.2,1.1-0.8,1.7-0.2C66.5,54,65.4,55.3,65.4,55.4z
	 M35.6,41l12.7,7.3c0.2,0.1,0.5,0.2,0.8,0.2c0.3,0,0.5-0.1,0.8-0.2L62.6,41c0.5-0.3,0.8-0.8,0.8-1.3V24.9c0-0.6-0.3-1.1-0.8-1.3
	l-12.7-7.3c-0.5-0.3-1.1-0.3-1.5,0l-12.7,7.3c-0.5,0.3-0.8,0.8-0.8,1.3v14.7C34.9,40.2,35.2,40.7,35.6,41z M60.3,38.7l-9.9,5.7V33
	l9.9-5.7V38.7z M59.1,25.1l-9.9,5.7l-4-2.3l9.9-5.7L59.1,25.1z M49.1,19.4l3.5,2l-9.9,5.7l-3.5-2L49.1,19.4z M38,27.2l3.3,1.9v4.1
	l2.5,1.4v-4.1l4.2,2.4v11.5L38,38.7V27.2z"/>
</svg>
