<?xml version="1.0" encoding="utf-8"?>
<!-- Generator: Adobe Illustrator 21.1.0, SVG Export Plug-In . SVG Version: 6.00 Build 0)  -->
<svg version="1.1" id="Layer_1" xmlns="http://www.w3.org/2000/svg" xmlns:xlink="http://www.w3.org/1999/xlink" x="0px" y="0px"
	 viewBox="0 0 41.2 39" style="enable-background:new 0 0 41.2 39;" xml:space="preserve">
<style type="text/css">
	.st0{fill:#FFFFFF;}
	.st1{fill:#002906;}
	.st2{fill:#212121;}
</style>
<g>
	<circle class="st0" cx="20.6" cy="19.5" r="14.9"/>
	<g id="XMLID_33_">
		<path id="XMLID_36_" class="st1" d="M16.9,17h-2.8c-0.1,0-0.2,0.1-0.2,0.2v9c0,0.1,0.1,0.2,0.2,0.2h2.8c0.1,0,0.2-0.1,0.2-0.2v-9
			C17.1,17.1,17,17,16.9,17z"/>
		<path id="XMLID_35_" class="st2" d="M15.5,12.6c-1,0-1.8,0.8-1.8,1.8c0,1,0.8,1.8,1.8,1.8c1,0,1.8-0.8,1.8-1.8
			C17.4,13.4,16.5,12.6,15.5,12.6z"/>
		<path id="XMLID_34_" class="st2" d="M24,16.8c-1.1,0-1.9,0.5-2.5,1v-0.6c0-0.1-0.1-0.2-0.2-0.2h-2.7c-0.1,0-0.2,0.1-0.2,0.2v9
			c0,0.1,0.1,0.2,0.2,0.2h2.8c0.1,0,0.2-0.1,0.2-0.2v-4.4c0-1.5,0.4-2.1,1.4-2.1c1.1,0,1.2,0.9,1.2,2.2v4.4c0,0.1,0.1,0.2,0.2,0.2
			h2.8c0.1,0,0.2-0.1,0.2-0.2v-4.9C27.6,19.1,27.2,16.8,24,16.8z"/>
	</g>
</g>
</svg>
