<?xml version="1.0" encoding="utf-8"?>
<!-- Generator: Adobe Illustrator 21.1.0, SVG Export Plug-In . SVG Version: 6.00 Build 0)  -->
<svg version="1.1" id="Layer_1" xmlns="http://www.w3.org/2000/svg" xmlns:xlink="http://www.w3.org/1999/xlink" x="0px" y="0px"
	 viewBox="0 0 41.2 39" style="enable-background:new 0 0 41.2 39;" xml:space="preserve">
<style type="text/css">
	.st0{fill:#FFFFFF;}
	.st1{fill:#212121;}
</style>
<g>
	<circle class="st0" cx="20.6" cy="19.5" r="14.9"/>
	<g>
		<g>
			<path class="st1" d="M22.2,22.3c-0.2-0.3-0.5-0.6-0.7-0.8c-0.3-0.2-0.5-0.5-0.8-0.7c-0.3-0.2-0.5-0.4-0.7-0.6
				c-0.2-0.2-0.4-0.4-0.5-0.6c-0.1-0.2-0.2-0.4-0.2-0.6c0-0.3,0.1-0.6,0.3-0.8c0.2-0.3,0.4-0.5,0.7-0.7c0.3-0.2,0.5-0.5,0.8-0.8
				c0.3-0.3,0.5-0.7,0.7-1.1c0.2-0.5,0.3-1,0.3-1.6c0-0.7-0.2-1.4-0.5-2.1c-0.3-0.7-0.8-1.2-1.3-1.5h1.6l1.6-1h-5.3
				c-0.8,0-1.5,0.1-2.3,0.2c-1.1,0.3-2.1,0.8-2.8,1.7c-0.8,0.9-1.2,1.9-1.2,3c0,1.2,0.4,2.2,1.3,3c0.9,0.8,1.9,1.2,3.1,1.2
				c0.2,0,0.5,0,0.9-0.1c0,0.1,0,0.2-0.1,0.3c0,0.1-0.1,0.2-0.1,0.3c0,0.1,0,0.1-0.1,0.2c0,0.1,0,0.2,0,0.3c0,0.5,0.3,1.1,0.8,1.8
				c-0.6,0-1.2,0.1-1.8,0.2c-0.6,0.1-1.2,0.2-1.9,0.4c-0.7,0.2-1.2,0.5-1.8,0.9c-0.5,0.4-0.9,0.8-1.2,1.3c-0.3,0.6-0.5,1.1-0.5,1.6
				c0,0.5,0.1,1,0.4,1.5c0.2,0.4,0.6,0.8,0.9,1.1c0.4,0.3,0.8,0.5,1.3,0.7c0.5,0.2,1,0.3,1.5,0.4c0.5,0.1,1,0.1,1.5,0.1
				c2.2,0,3.9-0.5,5.1-1.6c1.1-1,1.7-2.1,1.7-3.4c0-0.5-0.1-0.9-0.2-1.3C22.5,22.9,22.4,22.6,22.2,22.3z M17.5,17.8
				c-0.4,0-0.8-0.1-1.2-0.3c-0.4-0.2-0.7-0.5-0.9-0.8c-0.3-0.3-0.5-0.7-0.7-1.1c-0.2-0.4-0.3-0.8-0.4-1.3c-0.1-0.4-0.1-0.8-0.1-1.2
				c0-0.8,0.2-1.4,0.6-2c0.4-0.6,1-0.8,1.8-0.8c0.5,0,1,0.2,1.5,0.5c0.4,0.3,0.8,0.8,1,1.3c0.2,0.5,0.4,1,0.6,1.6
				c0.1,0.5,0.2,1.1,0.2,1.6c0,0.8-0.2,1.5-0.5,2C18.8,17.6,18.2,17.8,17.5,17.8z M20.8,27c-0.2,0.4-0.5,0.7-0.9,0.9
				c-0.4,0.2-0.8,0.4-1.2,0.5c-0.4,0.1-0.9,0.2-1.4,0.2c-0.5,0-1-0.1-1.5-0.2c-0.5-0.1-1-0.3-1.5-0.6c-0.5-0.2-0.8-0.6-1.1-1
				c-0.3-0.4-0.4-0.9-0.4-1.5c0-0.5,0.1-0.9,0.3-1.3c0.2-0.4,0.5-0.7,0.8-0.9c0.3-0.2,0.7-0.4,1.2-0.6c0.5-0.1,0.9-0.2,1.3-0.3
				c0.4-0.1,0.9-0.1,1.3-0.1c0.3,0,0.5,0,0.6,0c0,0,0.2,0.1,0.4,0.3s0.3,0.2,0.4,0.3c0.1,0,0.2,0.1,0.4,0.3c0.2,0.1,0.3,0.2,0.4,0.3
				c0.1,0.1,0.2,0.2,0.3,0.3c0.1,0.1,0.3,0.3,0.3,0.4c0.1,0.1,0.2,0.2,0.3,0.4c0.1,0.1,0.2,0.3,0.2,0.4c0,0.1,0.1,0.3,0.1,0.4
				c0,0.2,0.1,0.3,0.1,0.5C21.2,26.2,21,26.6,20.8,27z"/>
			<polygon class="st1" points="27.6,12.5 27.6,9.4 26.1,9.4 26.1,12.5 23,12.5 23,14 26.1,14 26.1,17.2 27.6,17.2 27.6,14 30.8,14 
				30.8,12.5 			"/>
		</g>
	</g>
</g>
</svg>
