<?xml version="1.0" encoding="utf-8"?>
<!-- Generator: Adobe Illustrator 21.1.0, SVG Export Plug-In . SVG Version: 6.00 Build 0)  -->
<svg version="1.1" id="Layer_1" xmlns="http://www.w3.org/2000/svg" xmlns:xlink="http://www.w3.org/1999/xlink" x="0px" y="0px"
	 viewBox="0 0 83.8 66.3" style="enable-background:new 0 0 83.8 66.3;" xml:space="preserve">
<style type="text/css">
	.st0{fill:#FFD230;}
</style>
<path class="st0" d="M62.7,48.7l19.5-21H68.9v-15h-3.7v15h-8.5v-15h-3.7v15h-2.5L36.8,12H26.5v4.3h-1.8V4h-9.4v12.2h-2.7v11.4H4.9
	l7.8,21H62.7z M30.1,15.7h5l1.9,2.2h-7V15.7z M18.9,7.7H21v8.1h-2.1V7.7z M16.1,20.1H39l2.2,2.6H16.1V20.1z M16.1,24.8h27.1l2.5,2.8
	H16.1V24.8z M73.8,31.3L61.1,45H15.2l-5.1-13.7H73.8z M61.4,34.8h-4.1v3.6h4.1V34.8z M69.7,59.4H10.6c-0.8,0-1.5,0.7-1.5,1.5
	s0.7,1.5,1.5,1.5h59.1c0.8,0,1.5-0.7,1.5-1.5S70.5,59.4,69.7,59.4z M77.2,52.4H3.1c-0.8,0-1.5,0.7-1.5,1.5c0,0.8,0.7,1.5,1.5,1.5
	h74.1c0.8,0,1.5-0.7,1.5-1.5C78.7,53.1,78.1,52.4,77.2,52.4z M38.9,34.8h-4.1v3.6h4.1V34.8z M31.4,34.8h-4.1v3.6h4.1V34.8z
	 M23.9,34.8h-4.1v3.6h4.1V34.8z M53.9,34.8h-4.1v3.6h4.1V34.8z M46.4,34.8h-4.1v3.6h4.1V34.8z"/>
</svg>
