<?xml version="1.0" encoding="utf-8"?>
<!-- Generator: Adobe Illustrator 21.1.0, SVG Export Plug-In . SVG Version: 6.00 Build 0)  -->
<svg version="1.1" id="Layer_1" xmlns="http://www.w3.org/2000/svg" xmlns:xlink="http://www.w3.org/1999/xlink" x="0px" y="0px"
	 viewBox="0 0 112 86" style="enable-background:new 0 0 112 86;" xml:space="preserve">
<style type="text/css">
	.st0{fill:#FFFFFF;}
</style>
<path class="st0" d="M78.9,60c-3.6,0-6.6,2.8-6.6,6.4c0,3.5,3,6.4,6.6,6.4c3.6,0,6.6-2.8,6.6-6.4C85.5,62.9,82.5,60,78.9,60z
	 M78.9,69.1c-1.5,0-2.7-1.2-2.7-2.7c0-1.5,1.2-2.7,2.7-2.7c1.5,0,2.7,1.2,2.7,2.7C81.6,67.9,80.4,69.1,78.9,69.1z M44.5,52.6
	c6.5,0,11.7-5.3,11.7-11.7s-5.3-11.7-11.7-11.7c-6.5,0-11.7,5.3-11.7,11.7S38,52.6,44.5,52.6z M48.8,49.5c0.5-0.7,0.9-1.6,1.3-2.5
	c0.5,0.2,0.9,0.4,1.3,0.6C50.7,48.4,49.8,49,48.8,49.5z M52.3,46.6c-0.6-0.3-1.2-0.6-1.8-0.8c0.3-1.3,0.6-2.7,0.6-4.2h3
	C54,43.4,53.4,45.1,52.3,46.6z M54.1,40.2h-3c0-1.5-0.3-3-0.6-4.3c0.6-0.2,1.2-0.5,1.8-0.8C53.3,36.6,54,38.3,54.1,40.2z M51.4,34.1
	c-0.4,0.2-0.9,0.4-1.3,0.6c-0.3-0.9-0.8-1.7-1.2-2.4C49.8,32.7,50.6,33.3,51.4,34.1z M45.1,31.2c0.3,0,0.6,0.1,0.9,0.1
	c1.1,0.7,2,2,2.7,3.8c-1.1,0.3-2.3,0.5-3.6,0.5V31.2z M45.1,36.9c1.4,0,2.8-0.2,4-0.6c0.3,1.2,0.5,2.5,0.6,3.9h-4.6V36.9z
	 M45.1,41.5h4.6c0,1.3-0.2,2.6-0.6,3.8c-1.3-0.3-2.6-0.5-4.1-0.6V41.5z M45.1,46.1c1.3,0,2.5,0.2,3.6,0.5c-0.7,1.8-1.6,3.1-2.7,3.8
	c-0.3,0-0.6,0.1-0.9,0.1V46.1z M37.5,47.6c0.4-0.2,0.9-0.4,1.3-0.6c0.3,0.9,0.8,1.8,1.3,2.5C39.1,49,38.2,48.4,37.5,47.6z
	 M43.8,50.6c-0.3,0-0.6-0.1-0.9-0.1c-1.1-0.7-2.1-2.1-2.7-3.8c1.1-0.3,2.4-0.5,3.6-0.5V50.6z M43.8,44.8c-1.4,0-2.8,0.2-4.1,0.6
	c-0.3-1.2-0.5-2.4-0.6-3.8h4.6V44.8z M43.8,40.2h-4.6c0.1-1.4,0.3-2.7,0.6-3.9c1.3,0.3,2.6,0.5,4,0.6V40.2z M42.9,31.3
	c0.3,0,0.6-0.1,0.9-0.1v4.4c-1.3,0-2.5-0.2-3.6-0.5C40.8,33.3,41.8,32,42.9,31.3z M40.1,32.2c-0.5,0.7-0.9,1.5-1.2,2.4
	c-0.5-0.2-0.9-0.4-1.3-0.6C38.3,33.3,39.1,32.7,40.1,32.2z M36.6,35.1c0.6,0.3,1.2,0.6,1.8,0.8c-0.4,1.3-0.6,2.7-0.6,4.3h-3
	C34.9,38.3,35.6,36.6,36.6,35.1z M37.8,41.5c0,1.5,0.3,2.9,0.6,4.2c-0.7,0.2-1.3,0.5-1.8,0.8c-1-1.4-1.7-3.1-1.8-5H37.8z M91.6,59.9
	V48.4c0-0.8-0.5-1.4-1.3-1.6l-6.1-1.6L81,33.8c-0.2-0.7-0.9-1.2-1.6-1.2H66v-12c0-0.9-0.8-1.7-1.7-1.7H24.5c-0.9,0-1.7,0.8-1.7,1.7
	v39.3H21v4.1h6.4c0.5-1.7,1.5-3.2,2.8-4.3h-4V22.3h36.4v37.5H41.9c1.3,1.1,2.3,2.6,2.8,4.3h25.5c0.5-1.6,1.4-3,2.6-4.1H66V48.1h16
	c0.1,0.1,0.3,0.2,0.5,0.2l5.8,1.5v10.2h-3.3c1.2,1.1,2.2,2.5,2.6,4.1h6.3v-4.1H91.6z M66,46V36h12.2L81,46H66z M67.5,50.1v3.3
	c0,0.6,0.5,1,1,1c0.6,0,1-0.5,1-1v-3.3c0-0.6-0.5-1-1-1C68,49.1,67.5,49.6,67.5,50.1z M36.1,60c-3.6,0-6.6,2.8-6.6,6.4
	c0,3.5,3,6.4,6.6,6.4s6.6-2.8,6.6-6.4C42.7,62.9,39.7,60,36.1,60z M36.1,69.1c-1.5,0-2.7-1.2-2.7-2.7c0-1.5,1.2-2.7,2.7-2.7
	c1.5,0,2.7,1.2,2.7,2.7C38.8,67.9,37.6,69.1,36.1,69.1z"/>
</svg>
