<?xml version="1.0" encoding="utf-8"?>
<!-- Generator: Adobe Illustrator 21.1.0, SVG Export Plug-In . SVG Version: 6.00 Build 0)  -->
<svg version="1.1" id="Layer_1" xmlns="http://www.w3.org/2000/svg" xmlns:xlink="http://www.w3.org/1999/xlink" x="0px" y="0px"
	 viewBox="0 0 61.2 66.3" style="enable-background:new 0 0 61.2 66.3;" xml:space="preserve">
<style type="text/css">
	.st0{fill:#212121;}
</style>
<path class="st0" d="M30.6,15.1c-6.1,0-11,4.9-11,11s4.9,11,11,11s11-4.9,11-11C41.6,20.1,36.7,15.1,30.6,15.1z M34.6,27.6l0.9,5.4
	l-4.9-2.6L25.7,33l0.9-5.4l-4-3.9l5.5-0.8l2.4-5l2.4,5l5.5,0.8L34.6,27.6z M53.5,25.3c0-1.2-0.7-2.3-1.7-2.9L49,20.5l1.4-3.2
	c0.7-1.6,0.1-3.5-1.4-4.5c-0.5-0.3-1.1-0.5-1.8-0.6L43.7,12l-0.4-3.5c-0.1-1.2-0.8-2.2-1.9-2.8c-1-0.6-2.3-0.6-3.4,0l-3,1.6
	l-2.1-2.8C32.3,3.6,31.2,3,30,3c-0.2,0-0.3,0-0.5,0.1c-1.1,0.2-2.1,0.9-2.7,1.8l-1.7,2.7l-3.2-1.4c-1.4-0.6-3.1-0.2-4.1,0.9
	c-0.6,0.6-0.9,1.5-1,2.4l-0.2,3.4l-3.4,0.4c-0.7,0.1-1.4,0.3-1.9,0.8c-1.4,1.1-1.8,3-1,4.5l1.6,3.1l-2.8,2.1c-1,0.7-1.5,1.8-1.5,3
	s0.7,2.3,1.7,2.9l2.9,1.9l-1.4,3.2c-0.7,1.6-0.1,3.5,1.4,4.5c0.5,0.3,1.1,0.5,1.8,0.6l3.4,0.2l0.1,0.9l-7.3,14.9
	C10,56.4,10,57,10.3,57.5s0.9,0.7,1.4,0.6l6.1-0.8l3.1,5.3c0.3,0.5,0.8,0.8,1.3,0.8c0,0,0,0,0.1,0c0.6,0,1.1-0.3,1.3-0.9l6.6-13.6
	C30.5,49,30.8,49,31,49c0.1,0,0.1,0,0.1,0c0.2,0,0.4,0,0.7-0.1l6.6,13.5c0.2,0.5,0.8,0.8,1.3,0.9c0,0,0,0,0.1,0c0.5,0,1-0.3,1.3-0.8
	l3.1-5.3l6.1,0.8c0.6,0.1,1.1-0.2,1.4-0.6c0.3-0.5,0.4-1.1,0.1-1.6l-7.3-15c-0.1-0.1-0.1-0.2-0.2-0.3l0.1-1.4l3.4-0.4
	c1.2-0.1,2.2-0.8,2.8-1.9c0.6-1,0.6-2.3,0-3.4L49,30.3l2.8-2.1C53,27.6,53.6,26.5,53.5,25.3z M22.3,58.5l-2.1-3.7
	c-0.3-0.5-0.9-0.8-1.5-0.7l-4.3,0.5l4.5-9.2c0.3,0.3,0.6,0.6,1,0.8c0.7,0.4,1.6,0.5,2.4,0.4l-2.6,5.3c-0.2,0.5,0,1,0.4,1.2
	c0.1,0.1,0.3,0.1,0.4,0.1c0.3,0,0.7-0.2,0.8-0.5l3.5-7.2l1.5-0.8L28,47L22.3,58.5z M48.1,54.7l-4.3-0.5c-0.6-0.1-1.2,0.2-1.5,0.7
	l-2.1,3.7L34.4,47l1.7-2.6l1.2,0.5l3.8,7.8c0.2,0.3,0.5,0.5,0.8,0.5c0.1,0,0.3,0,0.4-0.1c0.5-0.2,0.6-0.8,0.4-1.2L39.9,46
	c1.1,0.3,2.4,0,3.3-0.8c0.1-0.1,0.1-0.1,0.2-0.2L48.1,54.7z M50.2,25.9l-3.8,2.8c-0.6,0.5-0.8,1.3-0.5,2l2.1,4.2
	c0.1,0.2,0.1,0.4,0,0.5c-0.1,0.2-0.3,0.3-0.5,0.3L43,36.3c-0.8,0.1-1.4,0.7-1.4,1.5l-0.2,4.6c0,0.2-0.1,0.4-0.2,0.5
	c-0.3,0.2-0.5,0.2-0.6,0.1l-4.3-1.9c-0.7-0.3-1.5-0.1-1.9,0.6l-2.6,4c-0.1,0.2-0.3,0.3-0.5,0.3v1.5V46c-0.2,0-0.4-0.1-0.5-0.2L28,42
	c-0.3-0.4-0.8-0.7-1.3-0.7c-0.2,0-0.5,0.1-0.7,0.2l-4.2,2.1c-0.2,0.1-0.4,0.1-0.5,0c-0.2-0.1-0.3-0.3-0.3-0.5l-0.5-4.7
	C20.4,37.6,19.8,37,19,37l-4.7-0.2c-0.2,0-0.3-0.1-0.3-0.1c-0.3-0.2-0.3-0.5-0.2-0.8l1.9-4.3c0.3-0.7,0.1-1.5-0.6-2l-4-2.6
	c-0.2-0.1-0.3-0.3-0.3-0.5s0.1-0.4,0.2-0.5l3.8-2.8c0.6-0.5,0.8-1.3,0.5-2L13.2,17c-0.1-0.2-0.1-0.5,0.2-0.8c0,0,0.2-0.1,0.3-0.1
	l4.6-0.5c0.8-0.1,1.4-0.7,1.4-1.5l0.2-4.6c0-0.2,0.1-0.4,0.2-0.4C20.2,9,20.5,8.9,20.7,9l4.3,1.9c0.7,0.3,1.5,0.1,1.9-0.6l2.4-3.7
	c0.2-0.2,0.4-0.4,0.7-0.5c0.2,0,0.3,0.1,0.4,0.2l2.8,3.8c0.5,0.6,1.3,0.8,2,0.5l4.2-2.1c0.2-0.1,0.4-0.1,0.5,0
	c0.2,0.1,0.3,0.3,0.3,0.5l0.5,4.7c0.1,0.8,0.7,1.4,1.5,1.4l4.7,0.2c0.2,0,0.3,0.1,0.3,0.1c0.3,0.2,0.3,0.5,0.2,0.8l-1.9,4.3
	c-0.3,0.7-0.1,1.5,0.6,1.9l4,2.6c0.2,0.1,0.3,0.3,0.3,0.5C50.5,25.6,50.4,25.8,50.2,25.9z"/>
</svg>
