<?xml version="1.0" encoding="utf-8"?>
<!-- Generator: Adobe Illustrator 21.1.0, SVG Export Plug-In . SVG Version: 6.00 Build 0)  -->
<svg version="1.1" id="Layer_1" xmlns="http://www.w3.org/2000/svg" xmlns:xlink="http://www.w3.org/1999/xlink" x="0px" y="0px"
	 viewBox="0 0 112 86" style="enable-background:new 0 0 112 86;" xml:space="preserve">
<style type="text/css">
	.st0{fill:#FFFFFF;}
</style>
<path class="st0" d="M76.1,50.1c-7.1,0-13,5.8-13,13c0,7.1,5.8,13,13,13s13-5.8,13-13C89.1,55.9,83.2,50.1,76.1,50.1z M76.1,72.8
	c-5.4,0-9.8-4.4-9.8-9.8c0-5.4,4.4-9.8,9.8-9.8c5.4,0,9.8,4.4,9.8,9.8C85.9,68.5,81.5,72.8,76.1,72.8z M62.5,55.9c0.5,0,1-0.4,1-1
	c0-0.5-0.4-1-1-1h-6.1V44h11.5v4.9c0,0.5,0.4,1,1,1s1-0.4,1-1V44h11.8v3.7c0,0.9,0.7,1.6,1.6,1.6c0.9,0,1.6-0.7,1.6-1.6V19
	c0-1.9-1.5-3.4-3.4-3.4H29.1c-1.9,0-3.4,1.5-3.4,3.4v46.5c0,1.9,1.5,3.4,3.4,3.4h31.2c0.9,0,1.6-0.7,1.6-1.6c0-0.9-0.7-1.6-1.6-1.6
	h-3.8v-9.7H62.5z M81.7,31.5V42H69.9V31.5H81.7z M69.5,21.4c1.2,0,2.2,1,2.2,2.2c0,1.2-1,2.2-2.2,2.2c-1.2,0-2.2-1-2.2-2.2
	C67.3,22.4,68.3,21.4,69.5,21.4z M56.5,31.5h11.5v6.6l-4,4h-7.5V31.5z M41.2,65.7H29.1c-0.1,0-0.2-0.1-0.2-0.2v-9.6h12.3V65.7z
	 M41.2,54H28.9V44h12.3V54z M41.2,38l-4,4h-8.3V31.5h12.3V38z M41.1,25.9c-1.2,0-2.2-1-2.2-2.2c0-1.2,1-2.2,2.2-2.2
	c1.2,0,2.2,1,2.2,2.2C43.3,24.9,42.3,25.9,41.1,25.9z M54.6,65.7H43.1v-9.7h11.5V65.7z M54.6,49.8L50.3,54h-7.2V44h11.5V49.8z
	 M54.6,42H43.1V31.5h11.5V42z M80.7,61.8h-3.3v-5c0-0.7-0.6-1.3-1.3-1.3s-1.3,0.6-1.3,1.3v6.2c0,0.7,0.6,1.3,1.3,1.3h4.6
	c0.7,0,1.3-0.6,1.3-1.3S81.4,61.8,80.7,61.8z"/>
</svg>
