<?xml version="1.0" encoding="utf-8"?>
<!-- Generator: Adobe Illustrator 21.1.0, SVG Export Plug-In . SVG Version: 6.00 Build 0)  -->
<svg version="1.1" id="Layer_1" xmlns="http://www.w3.org/2000/svg" xmlns:xlink="http://www.w3.org/1999/xlink" x="0px" y="0px"
	 viewBox="0 0 112 86" style="enable-background:new 0 0 112 86;" xml:space="preserve">
<style type="text/css">
	.st0{fill:#FFFFFF;}
</style>
<path class="st0" d="M88.6,24.1V27h11v-2.9H88.6z M74.6,33c-0.6,0-1,0.5-1,1c0,0.6,0.5,1,1,1c0.6,0,1-0.5,1-1c0-0.1,0-0.3-0.1-0.4
	l7.6-7.7h3.1c0.2,0,0.3-0.2,0.3-0.3c0-0.2-0.2-0.3-0.3-0.3h-3.4l-7.8,7.8C74.9,33,74.8,33,74.6,33z M26.1,18h-8.9v2.9h8.9V18z
	 M28.4,19.8h3.1l7.6,7.7c-0.1,0.1-0.1,0.3-0.1,0.4c0,0.6,0.5,1,1,1c0.6,0,1-0.5,1-1s-0.5-1-1-1c-0.2,0-0.3,0-0.5,0.1l-7.8-7.8h-3.4
	c-0.2,0-0.3,0.2-0.3,0.3S28.2,19.8,28.4,19.8z M89.1,67.9h7.6v-2.9h-7.6V67.9z M86.8,66.1h-3.1L76,58.5c0.1-0.1,0.1-0.3,0.1-0.4
	c0-0.6-0.5-1-1-1c-0.6,0-1,0.5-1,1c0,0.6,0.5,1,1,1c0.2,0,0.3,0,0.5-0.1l7.8,7.8h3.4c0.2,0,0.3-0.2,0.3-0.3
	C87.1,66.3,87,66.1,86.8,66.1z M14.3,71.7h7.6v-2.9h-7.6V71.7z M47.6,40.9c0.3,0,0.5-0.2,0.8-0.3c0.1-0.4-0.1-0.7,0-1
	c-0.4-0.6-0.6,0.3-1,0.3c0,0.3,0,0.6,0,0.8C47.5,40.7,47.5,40.8,47.6,40.9z M48.9,37.8c-0.4-0.1-0.7,0.2-0.8,0.5
	c0.1,0.2,0.2,0.4,0.3,0.5c0,0.2,0,0.3,0,0.4c0.1,0.1,0.2,0.2,0.3,0.4c0.1,0,0.3,0,0.3,0.1c-0.1,0,0,0.2,0,0.3
	c-0.1,0-0.1,0.2-0.2,0.2c0.2,0.2-0.1,0.3,0,0.5c0,0.1,0.2,0,0.2,0.1c0,0.3-0.4,0.2-0.4,0.5c0.1,0.1,0.3,0.1,0.4,0.1
	c0.3-0.3,0.7-0.3,1.1-0.3c0.4-0.3,0.3-1.2-0.2-1.3c-0.1-0.6-0.5-0.8-0.8-1.2c0-0.2,0.1-0.4,0.1-0.7c-0.1-0.1-0.2,0-0.3,0
	C49,37.9,48.9,37.9,48.9,37.8z M63.6,63.1c-0.2-0.3-0.3-0.7-0.5-0.7c-0.3,0.1-0.1,0.6-0.4,0.8c0,0.2,0.1,0.2,0,0.3
	c-0.1,0-0.1,0.1-0.1,0.1c-0.4,0-0.6,0.4-0.7,0.8c0.2,0.7-0.1,1.5,0,2.1c0.2,0.2,0.3,0.7,0.6,0.7c0.3,0,0.4-0.7,0.5-1.1
	c-0.1-0.7,0.3-1.1,0.3-1.9C63.5,63.9,63.5,63.4,63.6,63.1z M70.1,25.2c0.2,0,0.3,0,0.5-0.1c-0.1-0.1-0.2-0.2-0.4-0.3
	C70.2,24.9,70.1,25,70.1,25.2z M61.5,30.9c0.1,0.2,0.1,0.3,0.2,0.4c0.3-0.1,0.7,0.2,0.8-0.4c-0.1-0.1-0.1,0-0.2,0
	c-0.3-0.7-0.1-1.4,0.4-1.6c0.1-0.5,0.5-0.6,0.8-1c0,0.1,0.1,0,0.2,0c0.4-0.5,1-0.3,1.5-0.7c0-0.3-0.1-0.3-0.2-0.5
	c-0.4-0.3-0.6,0.2-0.9,0.3c-0.1,0.1-0.3,0-0.5,0.1c-0.3,0.1-0.5,0.3-0.8,0.5c-0.2,0.1-0.5,0-0.6,0.1c-0.2,0.1-0.2,0.4-0.3,0.5
	c-0.1,0.1-0.2,0.2-0.2,0.3c0,0,0,0,0,0.1c-0.2,0.3-0.4,0.4-0.4,0.8c0.1,0,0,0.2,0.1,0.3c-0.1,0.2-0.3,0.3-0.3,0.5
	C61.1,30.8,61.3,30.8,61.5,30.9z M71.4,26.1c0.1-0.1,0.2-0.1,0.3-0.2c-0.3-0.3-0.6-0.5-0.9-0.8c-0.1,0-0.1,0.1-0.2,0.2
	C70.8,25.7,71.1,26,71.4,26.1z M79.6,49.9c-0.5-0.2-0.6,0.4-0.5,0.8c0.1,0,0.2,0.1,0.3,0.1C79.5,50.5,79.7,50.3,79.6,49.9z
	 M79.4,53.4c0.1-0.4,0.3-0.9,0.4-1.4c0,0,0-0.1-0.1-0.1c-0.2,0-0.3,0.2-0.4,0.3c0.1,0.4,0,0.6,0,0.9C79.3,53.3,79.3,53.3,79.4,53.4z
	 M77.5,33.5L77,34c0,1.3-1.1,2.4-2.4,2.4c-1.3,0-2.4-1.1-2.4-2.4s1.1-2.4,2.4-2.4c0,0,0,0,0,0l1.1-1.1c-0.9-1.3-1.9-2.4-3-3.5
	c-0.1,0.1-0.2,0.1-0.2,0.2c0,0.1,0,0.2,0,0.3c-0.3,0.3-1.1,0.4-1.5,0.2c-0.2,0-0.3,0.2-0.5,0.4c-0.4,0.3-1.1,0.3-1.3,0.7
	c-0.1,0.2,0.1,0.2,0.1,0.5c-0.4,0.2-1.1,0.1-1.5,0.4C67.8,29.8,68,29.8,68,30c0.4,0.1,0.7,0.6,0.6,1.2c-0.1-0.3-0.3-0.5-0.4-0.8
	c-0.3-0.2-1-0.5-1.2,0.1c0.1,0.3,0.3,0.2,0.4,0.6c-0.2,0.1-0.4,0-0.5-0.2c0-0.2,0.1-0.4,0-0.6c-0.3,0-0.3,0.1-0.5,0.2
	c0,0.2,0,0.5,0,0.5c0.2,0.3,0.2,0.8,0.4,1.1c0.1,0,0.4-0.2,0.5,0c-0.3-0.1-0.4,0.2-0.5,0.2c0,0.2,0,0.3,0,0.5
	c-0.3,0.1-0.4,0.5-0.7,0.5c0.2-0.3,0.3-0.7,0.4-1.1c-0.1-0.3-0.3-0.6-0.3-1c0-0.3,0.3-0.6,0.1-1.1c0-0.1-0.2-0.4-0.4-0.5
	c-0.2-0.1-0.7,0.4-0.7,0.6c0,0.1-0.1,0.3-0.1,0.3c-0.1,0.6,0.3,1.2,0.3,1.7c-0.2,0-0.5-0.2-0.6-0.4c-0.2-0.1-0.4,0-0.6,0
	c-0.4-0.1-0.6-0.6-1-0.4c-0.1,0.4,0.4,0.4,0.2,0.8c-0.1,0-0.3,0-0.4-0.1c-0.3,0.4-0.5,0-0.8,0.1c-0.1,0-0.3,0-0.5,0.1
	c-0.2,0-0.4,0.3-0.6,0.4c-0.1,0.1-0.3,0.1-0.4,0.2c-0.2,0.2-0.4,0.6-0.6,0.4c-0.1-0.3,0.1-0.3,0.1-0.5c-0.2-0.2-0.5-0.5-0.7-0.3
	c0,0.4,0.1,0.8-0.1,1.1c-0.4,0.1-0.6,0.6-0.8,0.9c-0.2-0.1-0.2,0-0.4,0c-0.1,0.1,0,0.4-0.2,0.4c-0.2,0-0.1-0.2-0.2-0.3
	c-0.2-0.3-0.5-0.5-0.6-0.9c0.6,0.4,1.5,0.3,1.7-0.6c-0.2-0.3-0.4-0.2-0.6-0.4c-0.3-0.6-0.8-0.9-1.4-0.8c-0.1-0.2-0.3-0.1-0.4-0.2
	c-0.1-0.1-0.1-0.2-0.2-0.3c-0.3,0.1-0.5,0.1-0.7-0.1c-0.4,0.2-1,0-1.3,0.4c-0.1,0-0.1-0.1-0.2-0.1c-0.3,0.6-1.1,0.8-1.3,1.4
	c-0.4,0.1-0.8,0.7-0.7,1.4c-0.2,0.7-0.7,1.2-1.1,1.6c0.1,0.4,0.1,1.1,0.2,1.6c0.1,0.2,0.3,0.1,0.4,0.2c0.1,0.1,0.1,0.2,0.2,0.2
	c0.3,0,0.4-0.3,0.6-0.5c0.2,0.1,0.3,0.2,0.5,0.2c0.1,0.3,0.3,0.4,0.5,0.5c0.2-0.4,0.4-0.9,0.5-1.4c-0.1-0.2-0.2-0.3-0.3-0.5
	c-0.2-1,0.8-1.1,0.9-2c0.1-0.2,0.4-0.5,0.7-0.3c0,0.1,0,0.2,0.1,0.3c-0.4,0.6-0.9,1.1-0.7,2.2c0.2,0,0.3,0.3,0.6,0.3
	c0.2,0,0.5-0.2,0.7-0.2c0,0,0,0.1,0.1,0.1c0.1,0,0.2-0.1,0.2,0c-0.1,0-0.1,0.1-0.1,0.2c-0.3-0.1-0.9,0.1-0.9,0.4
	c0,0.1,0.2,0.2,0.3,0.4c0.1,0.5-0.2,0.6-0.6,0.3c-0.3,0-0.2,0.5-0.2,0.9c-0.3,0.3-0.7,0.2-1.3,0.3c-0.2-0.4-0.4-1.1-0.8-1.2
	c-0.3-0.1-0.5,0.2-0.7,0.3c-0.1,0.6,0.6,1.7-0.3,1.6c-0.2,0.4-0.6,0.5-0.7,1.1c-0.4,0.1-0.5,0.6-0.9,0.8c0-0.1-0.1-0.1-0.1-0.1
	c-0.1,0.4-0.6,0.1-0.6,0.5c0.3,0.3,0.7,0.5,0.8,1c-0.1,0.2,0,0.6-0.1,0.8c-0.5,0.1-1.4-0.1-1.8,0.3c0.1,0.4,0.1,0.6,0.1,1
	c0,0.3,0,0.7,0.1,1.1c0.3,0.2,0.6,0.4,0.9,0.5c0.1,0,0.1-0.1,0.2-0.1c0.7,0.1,1.3-0.4,1.1-1.3c0.1-0.1,0.1-0.1,0.2-0.1
	c0.3-0.2,0.5-0.4,0.5-0.9c0.3-0.1,0.5-0.2,0.8-0.1c0.3-0.1,0.5-0.5,0.8-0.5c0.4,0.1,0.7,0.8,0.7,1.2c0.1,0,0.1,0.1,0.2,0.2
	c0.2,0.3,0.2,0.7,0.6,0.6c0.1-0.1,0.1-0.3,0-0.5c0,0,0,0,0,0c0.1,0,0.1-0.1,0.1-0.2c-0.2-0.2-0.4-0.5-0.5-1c0.4-0.1,0.7,0.3,0.8,0.9
	c0.1,0.1,0.1,0.2,0.2,0.2c0.3,0.3,0.5,0.7,0.6,1.3c0.5-0.1,0.4-0.8,0.3-1.2c0,0,0,0,0.1-0.1c0.2-0.2,0.4-0.4,0.6-0.3
	c0,0.1,0,0.2,0,0.3c0,0.3,0,0.5,0,0.8c0.1,0.2,0.3,0.4,0.5,0.6c0.4,0,0.9-0.1,1.2,0.1c0.2,0,0.2-0.2,0.5-0.2
	c0.2,0.6-0.1,1.2-0.1,1.7c-0.3,0.1-0.5-0.1-0.8-0.1c-0.1,0-0.3,0.2-0.4,0.2c-0.8,0.1-1.6-1-2.4-0.3c0,0.1,0,0.3,0,0.4
	c-0.3,0.2-0.5-0.2-0.6-0.4c-0.3-0.1-0.7-0.2-1-0.4c0-0.4,0-0.5-0.1-1.1c-0.1-0.3-0.5-0.2-0.8-0.3c-0.1,0.2-0.5,0.2-0.7,0
	c-0.6,0.4-1.6,0.5-2.1,0.8c-0.2-0.2-0.4-0.3-0.6-0.1c-0.1,0.6-0.5,0.8-0.8,1.2l0.1,0.6c-0.1,0.2-0.2,0.3-0.3,0.5
	c-0.3,0.2-0.6,0.7-0.8,1c0.1,0.4-0.4,0.7-0.4,1.1c0,0.1,0.1,0.2,0.1,0.4c0,0.2,0.1,0.5,0.1,0.8c0.1,0.5,0,0.8,0,1.3
	c0,0.6,0.2,0.7,0.5,0.9c0.2,0.7,0.8,0.9,1,1.6c0.2,0.1,0.3,0.4,0.4,0.6c0.2,0.2,0.5,0.3,0.8,0.3c0.2-0.2,0.6-0.2,0.9,0
	c0.4-0.1,1-0.2,1.3-0.5c0.1,0.1,0.2,0,0.4,0c0.2,0.4,0.5,0.5,1,0.4c0.1,0.1,0.1,0.3,0.2,0.5c0.1,0.5-0.1,0.8-0.2,1.1
	c0.3,0.8,1,1,1,2c0.2,0.2,0.3,0.5,0.4,0.7c0.4,1.2-0.5,1.9-0.3,2.9c0.1,0.3,0.3,0.6,0.4,0.9c0.1,0.4,0.3,0.7,0.3,1.2
	c0.2,0.7,0.3,1.8,0.6,2.2c0.2-0.1,0.3,0.5,0.4,0.9c0.4,0.9,1.8,0.3,2.6,0.1c0-0.1,0-0.2,0.1-0.4c0.5-0.4,0.7-1.1,1.1-1.7
	c0-0.4,0-0.4,0-0.7c0.2-0.2,0.3-0.2,0.4-0.4c0.1-0.4-0.1-0.7-0.1-1c-0.1-0.3,0.3-0.7,0.5-0.9c0.1-0.2,0.3-0.4,0.4-0.5
	c0.5-0.4,0.3-0.8,0.2-1.6C61,62.3,61,62.1,60.9,62c-0.2-0.4-0.4-0.6-0.4-1.1c0-0.3,0.3-1.3,0.4-1.5c0.1-0.3,0.6-0.7,0.9-1
	c0.2-0.3,0.4-0.7,0.6-0.9c0.1-0.5,0.2-1.1,0.4-1.5c0-0.5,0.2-0.7,0.3-1c-0.7-0.4-1,0.3-1.4,0.4c-0.3,0-0.4-0.2-0.5-0.4
	c-0.3-0.3-0.5-0.4-0.8-0.8c0-0.2-0.2-0.4-0.2-0.6c-0.3-0.3-0.6-0.9-0.8-1.4c-0.3-0.8-0.7-1.5-0.9-2.2c0-0.1-0.1,0.1-0.1-0.1
	c0.3-0.3,0.6,0.5,0.7,0.7c0.3,0.5,0.7,0.6,0.7,1.2c0.2,0.3,0.5,0.5,0.7,0.7c0.3,0.5,0.3,1.1,0.4,1.8c0.5,0.6,1.1-0.2,1.8-0.2
	c0.3-0.6,0.8-0.9,1.5-1.1c0.2-0.6,0.6-0.9,0.6-1.8c-0.2-0.2-0.4-0.3-0.7-0.5c-0.1-0.2-0.2-0.5-0.4-0.5c-0.1,0.3-0.2,0.5-0.5,0.5
	c-0.3,0-0.3-0.4-0.6-0.5c-0.2-0.1-0.2,0.1-0.3-0.1c-0.1-0.1,0-0.3-0.1-0.5c-0.1-0.2-0.4-0.3-0.4-0.7c0.6-0.2,0.7,0.8,1.2,1
	c0.2,0.1,0.5,0,0.7-0.1c0,0.1,0.1,0.1,0.2,0.2c0.7,0.2,1.5,0.4,2.4,0.3c0.2,0.5,0.7,0.6,0.9,0.7c0,0.4,0.1,0.8,0.4,0.7
	c0.1-0.1,0.1-0.3,0.1-0.3c0.1,0.1,0.2,0.1,0.2,0.2c0,0-0.1,0-0.1,0c0.2,0.3,0.1,0.7,0.2,1c0,0.3,0.2,0.6,0.2,0.9
	c0.4,0.9,0.6,1.2,0.8,2c0.1,0,0.1,0.2,0.3,0.2c0.1-0.2,0.3-0.3,0.5-0.5c0-0.6,0.3-1.1,0.1-2c0.6-0.6,1.1-1.2,1.4-2
	c0.4,0,0.6-0.1,0.7-0.3c0.3,0.7,1,1,0.8,1.8c0.2,0.4,0.7,0.4,0.9,0.1c0.1,0.5,0.5,1.5,0.4,2.2c0.1,0.2,0.2,0.4,0.3,0.6
	c0.2,0,0.3-0.1,0.5-0.1c-0.3-0.5-0.5-1-0.2-1.4c0.3,0.2,0.6,0.4,0.9,0.7c0.1,0.3,0.1,0.4,0.3,0.5c0.2-0.1,0.1-0.5,0.5-0.4
	c0.1-0.3,0.5-0.4,0.5-0.8c-0.1-0.5-0.3-0.8-0.4-1.3c-0.1-0.2-0.3-0.2-0.4-0.3c0-0.3-0.3-0.6-0.2-1c0.1-0.2,0.4-0.3,0.6-0.3
	c0.1,0,0.1,0.2,0.1,0.2c0.2-0.2,0.6-0.3,0.7-0.6c0.1,0,0.1,0,0.2,0c0.5-0.3,1-0.5,1.2-1c0-0.7,0.5-0.9,0.4-1.7
	c0-0.2-0.1-0.1-0.2-0.3c0-0.7-0.3-0.7-0.4-1.3c0.2-0.2,0.4-0.4,0.5-0.7c0-0.5-0.5-0.3-0.8-0.3c0-0.1,0-0.2,0-0.2
	c0-0.3,0.3-0.4,0.4-0.6c0.1,0.1,0.2,0.2,0.2,0.3c0.2,0.1,0.3,0,0.6,0c0.1,0,0.2,0.1,0.2,0.2c0.1,0.2,0.2,0.5,0.3,0.7
	c-0.2,0.5,0.1,0.8,0.4,0.8c0-0.4,0-0.8,0-1.2c0-0.1,0-0.1,0-0.2c0,0,0,0,0,0c-0.1-0.1-0.1-0.1-0.1-0.2c0.1-0.1,0.1-0.1,0.2-0.2
	C80.4,40.8,79.3,36.9,77.5,33.5z M59.8,44.8c-0.2,0.1-0.3,0.3-0.6,0.2c-0.2,0-0.3-0.3-0.6-0.4c-0.2-0.1-1.2,0-1.5,0.1
	C57,44.8,57,45,56.7,45c0.2-0.2-0.1-0.4-0.1-0.6c0-0.2,0.1-0.3,0.2-0.5c0.2-0.4,0.2-0.8,0.5-0.9c0.1,0.2,0.2,0.2,0.4,0.3
	c0,0.2,0.1,0.3,0.1,0.4c0.2,0.1,0.4-0.1,0.6-0.2c0-0.2-0.1-0.2-0.1-0.4c0.2-0.1,0.6,0,0.7-0.3c0.1,0.2-0.1,0.3-0.1,0.5
	c0.2,0.6,0.6,0.9,1,1.3C59.9,44.6,59.7,44.6,59.8,44.8z M61.8,45.4c0-0.1,0-0.2,0-0.2c0-0.7-0.7-1.1-0.7-1.8c0.3-0.4,1-0.8,1.4-0.5
	c0,0.4-0.6,0.3-0.6,0.8c0.2,0.4,0.5,0.7,0.6,1.3c0,0.2,0,0.4,0.1,0.5c0,0,0,0,0,0H61.8z M77.4,57.4c0,0.1,0.1,0.3,0.1,0.4
	c0.2-0.3,0.3-0.7,0.5-1C77.8,57,77.7,57.2,77.4,57.4C77.5,57.4,77.5,57.4,77.4,57.4z M76.5,52.1c0.2,0.4,0.7-0.1,0.5-0.5
	C76.8,51.7,76.5,51.7,76.5,52.1z M69.9,55.9c0.2,0.1,0.1,0.5,0.3,0.7c0.2,0,0.3,0,0.5-0.1c0-0.7-0.2-0.9-0.5-1
	C70,55.5,70,55.8,69.9,55.9z M34.8,42.8c0.1,0.5,0.6,0.1,0.8,0c0-0.2,0.1-0.4,0-0.6c0,0,0-0.1-0.1,0C35.6,42.7,35.2,42.9,34.8,42.8z
	 M44.7,34.6c0.2,0.9,1,0.3,1.5,0.3c0.1-0.3,0.2-0.5,0.4-0.6c0-0.3,0-0.4,0-0.8c-0.7,0.1-1.1,0.2-1.7,0.2
	C44.3,32.8,43.9,34.5,44.7,34.6z M34.4,32.6c-0.3-0.3-0.8-0.3-1-0.7c0-0.1,0.1,0.1,0.1-0.1c-0.1-0.5-0.5-0.7-0.7-1.1l-0.2,0
	c-0.3,0.5-0.6,0.9-0.9,1.4c0.1,0.1,0.2,0.2,0.2,0.3c0,0.2-0.1,0.4-0.1,0.6c0,0.1-0.2,0.1-0.2,0.2c0,0.1,0.2,0.2,0.1,0.2
	c-0.1,0,0,0,0,0.1c-0.2,0.1-0.6-0.2-0.7,0.2c0,0.8,0.5,0.5,0.9,0.5c0.2,0.2,0.4,0.4,0.5,0.6c0.6,0.1,0.9,1,1.6,0.8
	c-0.1-0.5-0.5-0.4-0.6-0.8c0.3-0.1,0.4,0.2,0.7,0.1c0.4-0.3,0.1-1-0.4-0.9c-0.1-0.2-0.2-0.4-0.2-0.6c0.4-0.2,0.7,0.3,1.1,0.3
	c0.1-0.2,0.2-0.5,0.3-0.8C34.7,32.9,34.5,32.9,34.4,32.6z M20.9,45.8c0,7.9,2.8,15.2,7.4,21l2.4-2.4c-4-5.1-6.5-11.6-6.5-18.6
	c0-8.8,3.8-16.8,10-22.3l-2.4-2.4C25.2,27.2,20.9,36.1,20.9,45.8z M44.1,31.3c-0.2,0-0.4,0.1-0.5-0.1c0.2-0.4,0.5,0.1,0.9,0
	c0.1-0.4-0.4-0.7-0.3-1.3c-0.1-0.1-0.3,0.1-0.3-0.2c0.2-0.2,0.4,0.3,0.7,0.2c0.1-0.2,0.3-0.4,0.3-0.8c0-0.1-0.1-0.3-0.1-0.4
	c0-0.1,0.1-0.1,0.1-0.2c0.1-0.3-0.1-0.5-0.1-0.8c0.2-0.1,0.3-0.1,0.5-0.2c-0.1-0.5-0.3-0.6-0.6-0.7c-0.2-0.7,0.4-1,0.5-1.5
	c0.6-0.2,1-0.7,1.3-1.3c-0.1-0.1-0.2,0-0.4,0c-0.4-0.5-1.6,0-2,0.2c0-0.1,0-0.2,0-0.3c-0.1-0.2-0.3-0.1-0.4-0.2c0.2,0,0.5,0,0.6-0.2
	c-0.2-0.5-0.7-0.5-1-0.8c-0.1,0-0.3,0.1-0.4,0.1c-0.3-0.1-0.6-0.2-1-0.2c-1.3,0.7-2.5,1.4-3.6,2.3l0.9,0.9c0.3-0.1,0.5-0.2,0.8-0.2
	c1.3,0,2.4,1.1,2.4,2.4s-1.1,2.4-2.4,2.4s-2.4-1.1-2.4-2.4c0-0.3,0.1-0.5,0.1-0.8l-1-1c-0.6,0.6-1.2,1.1-1.8,1.8
	c0.4,0.5,0.7,1.2,1.1,1.7c-0.1,0.4,0.1,0.8,0.3,1.1c0.6-0.5,1.1,0.5,1.1,1.2c-0.1,0.1-0.3,0.3-0.2,0.5c-0.2,0.3-0.6,0.4-0.6,0.8
	c0,0.5,0.5,0.7,0.7,1c0,0.7,0.2,0.9,0.3,1.6c0.5,0.2,1.1,0.3,1.3,0.9l0.4,0c0.1-0.1,0.1-0.2,0.2-0.3c0-0.5,0.1-0.9,0.2-1.3
	c0.4-0.3,0.3-1.1,0.9-1.1c0.1,0,0.2,0,0.2,0c0.2-0.1,0.2-0.4,0.4-0.6c0.2-0.2,0.4-0.2,0.6-0.4c0-0.1,0.1-0.3,0.2-0.4
	c0.9,0,1.5-0.6,2.2-0.9C44.4,31.6,44.2,31.3,44.1,31.3z M54.3,75.8c-8.3,0-15.9-3.4-21.3-8.9l-2.4,2.4c6.1,6.1,14.4,9.9,23.7,9.9
	c10.8,0,20.4-5.1,26.5-13.1l-2.4-2.4C72.9,71.1,64.2,75.8,54.3,75.8z M80.3,30.8c2.6,4.4,4.1,9.6,4.1,15.1c0,5.5-1.5,10.6-4,15
	l2.5,2.5c3.1-5.1,4.9-11.1,4.9-17.4c0-6.4-1.8-12.4-5-17.5L80.3,30.8z M36,38.9c-0.1-0.1-0.2,0-0.3,0c-0.1-0.3-0.4-0.5-0.6-0.7
	c-0.3-0.8-0.4-1.7-1.2-1.8c-0.1,0.3-0.1,0.8-0.5,0.8c-0.4-0.2-0.3-1-0.6-1.3c-0.1-0.2-0.4-0.2-0.6-0.4c-0.1-0.1-0.1-0.2-0.2-0.3
	c-0.5,0.1-0.7-0.2-1.2,0.1c-0.1,0.2,0,0.4,0.1,0.6c0.2,1,0,1.4,0.2,2.2c-0.1,0.5-0.7,0.9-0.3,1.6c-0.1,0.1,0,0.5-0.3,0.5
	c-0.4,0-0.5-1.1-0.6-1.6c-0.2-0.1-0.6-0.4-0.9-0.7c-0.7,2.4-1.1,5-1.1,7.6c0,1.1,0.1,2.1,0.2,3.1c0.2,0,0.5,0,0.7,0.1
	c0.1,0,0.1-0.2,0.1-0.3c0.4-0.2,0.7,0.2,1.2,0.1c0,0.1,0.1,0,0.1,0.1c0.2,0.6,0.5,1,0.8,1.3c0.2-0.6-0.2-1.1-0.3-1.8
	c0.1-0.2,0.1-0.3,0.2-0.6c0.6-0.3,1.2-1,0.9-2c0.2,0,0.2,0.1,0.3,0c0-0.1,0-0.2,0-0.3c0.2-0.6,0.7-0.8,1-1.2c0.1-0.1-0.1-0.2,0-0.4
	c0.7,0,0.7-0.7,1.3-0.8c0.2-0.1,0.1-0.7,0-0.9c0.1-0.3,0.4-0.4,0.4-0.9c-0.6-0.1-1,0.5-1.6,0.5c0.3-0.1,0.5-0.6,0.9-0.8
	c0.4-0.1,1,0.2,1.3,0c0.2-0.1,0.3-0.3,0.4-0.4c0.2-0.1,0.5-0.1,0.6-0.6c0-0.2,0-0.6-0.1-0.7c-0.2,0-0.4,0-0.6-0.1
	C35.8,39.1,36.1,39.1,36,38.9z M35.9,42.1c0.3-0.1,0.6,0.1,0.8,0.3c0.3-0.2,0.5,0,0.7-0.1c-0.2-0.3-0.1-1.2-0.6-1
	c-0.1-0.1-0.1-0.4-0.1-0.6C36.3,40.2,35.9,41.3,35.9,42.1z M54.3,15.8c9.8,0,18.6,4.8,24,12.1l2.4-2.4c-6.1-7.9-15.7-13-26.4-13
	c-7.9,0-15.2,2.8-20.9,7.4l2.4,2.4C40.9,18.2,47.3,15.8,54.3,15.8z M42.5,61.9c0.4-0.1,0.4-0.7,0.5-1.1c0-0.2-0.1-0.3-0.2-0.5
	c-0.4-0.1-0.7-0.5-1-0.6c-0.5-0.2-0.7-0.5-1.1-0.4c-0.4-0.3-0.8-0.5-1.3-0.8c-0.3,0-0.4,0.2-0.7,0.2c0-0.3,0.2-0.5,0.3-0.7
	c-0.1-0.4-0.3-0.5-0.5-0.8c-0.5-0.1-1-0.8-1.6-1c-0.1-0.2-0.3-0.3-0.4-0.5c-0.1,0-0.1-0.1-0.2-0.1c-0.3-0.5-0.7-0.5-1-0.6
	c-0.3,0.3-0.4,0.1-0.7-0.1c-0.1,0-0.3,0-0.3-0.1c-0.2-0.1-0.2-0.3-0.4-0.3c-0.2,0-0.2,0.5-0.4,0.4c0-0.1,0-0.4-0.1-0.6
	c-0.3,0-0.4,0.5-0.7,0.7c-0.2-0.1-0.4,0.1-0.6,0.3c-0.1,0-0.1-0.3-0.3-0.3c-0.6,0-1.1,0-1.2-0.5c0-0.3,0.2-0.8,0-1.3
	c-0.2,0-0.2-0.3-0.4-0.4c-0.3-0.2-0.6,0.1-0.9-0.3c-0.2-0.6,0.2-0.8,0.1-1.4c-0.4-0.4-0.8-0.1-0.9,0.4c0.2,0.8,0.4,1.6,0.7,2.4
	c0,0,0.1,0,0.1,0c0.3,0.1,0.4,0.5,0.5,0.8c0.1,0.1,0.3,0.2,0.4,0.4c0.4,0.4,0.9,1,1.3,0.5c0.5,0.4,0.6,0.8,0.5,1.4
	c0,0.1-0.3,0.9-0.4,1c-0.1,0.1-0.1,0-0.1,0.1c-0.1,0.2,0.1,0.6,0.1,0.8c0,0,0,0.1,0,0.1c0.5,0.9,1.1,1.7,1.7,2.5
	c0.1-1.2,1.1-2.2,2.4-2.2c1.3,0,2.4,1.1,2.4,2.4s-1.1,2.4-2.4,2.4c0,0,0,0,0,0l0,0c1.3,1.3,2.8,2.5,4.3,3.5c0-0.2-0.1-0.5-0.1-0.6
	c0.1-0.3,0.4-0.5,0.5-0.8c0.5-0.2,0.9-0.5,1.4-0.6c0.1-0.7,0.1-1.5,0.4-2c0-0.3,0-0.6-0.1-1c0.1-0.1,0.3-0.1,0.4-0.2
	C42.5,62.2,42.5,62.1,42.5,61.9z M30.7,35.9c0.1-0.2,0-0.6-0.2-0.6l-0.1,0C30.5,35.6,30.5,35.9,30.7,35.9z M34,52.2
	c-0.2-0.2-1-0.4-1,0.2c0.2,0.1,0.5,0.1,0.7,0.1c0.1-0.1,0-0.2,0-0.3C33.8,52.2,33.9,52.3,34,52.2z M30.3,51.1
	c0.5,0.4,1.3,0.2,1.8,0.8c0.4,0,0.5-0.1,0.7-0.2c-0.4-0.4-1-0.5-1.6-0.8C30.9,50.9,30.4,50.5,30.3,51.1z M35.8,62.8c0.6,0,1-0.5,1-1
	c0-0.6-0.5-1-1-1s-1,0.5-1,1c0,0.1,0,0.3,0.1,0.4l-7.6,7.7h-3.1c-0.2,0-0.3,0.2-0.3,0.3c0,0.2,0.2,0.3,0.3,0.3h3.4l7.8-7.8
	C35.5,62.8,35.6,62.8,35.8,62.8z"/>
</svg>
