<?xml version="1.0" encoding="utf-8"?>
<!-- Generator: Adobe Illustrator 21.1.0, SVG Export Plug-In . SVG Version: 6.00 Build 0)  -->
<svg version="1.1" id="Layer_1" xmlns="http://www.w3.org/2000/svg" xmlns:xlink="http://www.w3.org/1999/xlink" x="0px" y="0px"
	 viewBox="0 0 77 86" style="enable-background:new 0 0 77 86;" xml:space="preserve">
<style type="text/css">
	.st0{fill:#F7323F;}
</style>
<path class="st0" d="M20.5,67.3h17.2V53.9H20.5V67.3z M23.1,56.6h4.8v1.8l0.4-0.4h0l0.4,0.4l0.4-0.4h0l0.4,0.4l0.4-0.4h0l0.4,0.4
	v-1.8h4.8v8.2h-12V56.6z M40,67.3h17.2V53.9h-7.4v4.4L49.4,58h0L49,58.3L48.6,58h0l-0.4,0.4L47.8,58h0l-0.4,0.4v-4.4H40V67.3z
	 M37.7,38.8H20.5v13.4h17.2V38.8z M35.1,49.6h-12v-8.2h4.8v1.8l0.4-0.4h0l0.4,0.4l0.4-0.4h0l0.4,0.4l0.4-0.4h0l0.4,0.4v-1.8h4.8
	V49.6z M57.2,38.8H40v13.4h17.2V38.8z M54.6,49.6h-12v-8.2h4.8v1.8l0.4-0.4h0l0.4,0.4l0.4-0.4h0l0.4,0.4l0.4-0.4h0l0.4,0.4v-1.8h4.8
	V49.6z M64.2,36.7L38.9,20.1L13.6,36.7c-0.6,0.4-0.8,1.2-0.4,1.8c0.4,0.6,1.2,0.8,1.8,0.4l23.9-15.7l23.9,15.7
	c0.2,0.1,0.5,0.2,0.7,0.2c0.4,0,0.8-0.2,1.1-0.6C64.9,38,64.8,37.1,64.2,36.7z M60.2,69.5h-43c-0.7,0-1.3,0.6-1.3,1.3
	c0,0.7,0.6,1.3,1.3,1.3h43c0.7,0,1.3-0.6,1.3-1.3C61.5,70,61,69.5,60.2,69.5z"/>
</svg>
