<?xml version="1.0" encoding="utf-8"?>
<!-- Generator: Adobe Illustrator 21.1.0, SVG Export Plug-In . SVG Version: 6.00 Build 0)  -->
<svg version="1.1" id="Layer_1" xmlns="http://www.w3.org/2000/svg" xmlns:xlink="http://www.w3.org/1999/xlink" x="0px" y="0px"
	 viewBox="0 0 77 86" style="enable-background:new 0 0 77 86;" xml:space="preserve">
<style type="text/css">
	.st0{fill:#F7323F;}
</style>
<path class="st0" d="M26.2,40.2c-0.1,0.6-0.2,1.3-0.3,1.9c0,0.4,0.2,0.7,0.6,0.8c0,0,0.1,0,0.1,0c0.4,0,0.7-0.3,0.7-0.6
	c0.1-0.6,0.2-1.2,0.3-1.8c0.1-0.4-0.2-0.8-0.6-0.8C26.7,39.6,26.3,39.9,26.2,40.2z M59.9,37.3c-0.3-0.6-1-0.9-1.6-0.6
	c-0.6,0.3-0.9,1-0.6,1.6c1.1,2.5,1.7,5.1,1.8,7.8h-5c-0.4,0-0.7,0.3-0.7,0.7c0,0.4,0.3,0.7,0.7,0.7h5c-0.2,4.5-1.7,8.7-4.3,12
	c-1.5-1-3.4-1.8-5.4-2.5c0.7-2.2,1.1-4.7,1.3-7.3c0-0.4-0.3-0.7-0.7-0.8c-0.4,0-0.7,0.3-0.8,0.7c-0.2,2.5-0.6,4.8-1.2,7
	c-1.8-0.5-3.6-0.9-5.6-1.1c-0.4,0-0.7,0.2-0.8,0.6c0,0.4,0.2,0.7,0.6,0.8c1.8,0.2,3.6,0.6,5.3,1c-1.9,5.6-5.2,9.3-8.9,9.7v-9.8
	c0.8-0.3,1.4-1.1,1.4-2c0-1.2-0.9-2.1-2.1-2.1c-1.1,0-2.1,0.9-2.1,2.1c0,0.9,0.6,1.6,1.4,1.9v9.8c-3.7-0.4-7-4.2-8.9-9.7
	c1.7-0.5,3.4-0.8,5.3-1c0.4,0,0.7-0.4,0.6-0.8c0-0.4-0.4-0.7-0.8-0.6c-1.9,0.2-3.8,0.6-5.6,1.1c-0.5-1.7-0.9-3.5-1.1-5.4
	c0-0.4-0.4-0.7-0.8-0.6c-0.4,0-0.7,0.4-0.6,0.8c0.2,2,0.6,3.9,1.1,5.6c-2,0.7-3.8,1.5-5.3,2.5c-2.6-3.4-4.1-7.5-4.3-12h7
	c0.3,0.8,1,1.4,2,1.4c1.2,0,2.1-0.9,2.1-2.1c0-1.2-0.9-2.1-2.1-2.1c-0.9,0-1.7,0.6-1.9,1.4h-7c0.2-4.6,1.8-8.8,4.4-12.1
	c0.5,0.3,1,0.6,1.5,0.9c0.1,0.1,0.2,0.1,0.3,0.1c0.3,0,0.5-0.1,0.6-0.4c0.2-0.3,0-0.8-0.3-1c-0.4-0.2-0.8-0.5-1.2-0.7
	c2.7-3.1,6.4-5.4,10.5-6.4c-2.1,1.6-3.9,4.2-5.2,7.5c-1.1,0-2.1,0.9-2.1,2.1c0,1.2,0.9,2.1,2.1,2.1c1.1,0,2.1-0.9,2.1-2.1
	c0-0.7-0.3-1.2-0.8-1.6c2-5,5.1-8.1,8.4-8.5v10.8c-1.8,0-3.5-0.2-5.2-0.4c-0.4-0.1-0.8,0.2-0.8,0.6c-0.1,0.4,0.2,0.8,0.6,0.8
	c1.7,0.3,3.6,0.4,5.4,0.5V46h-6.4c-0.4,0-0.7,0.3-0.7,0.7c0,0.4,0.3,0.7,0.7,0.7h6.4v4c0,0.4,0.3,0.7,0.7,0.7s0.7-0.3,0.7-0.7v-4
	h7.5c0.4,0,0.7-0.3,0.7-0.7c0-0.4-0.3-0.7-0.7-0.7h-7.5v-7.9c2.4,0,4.7-0.3,6.9-0.7l4.2,8.9c0.1,0.2,0.4,0.4,0.6,0.4
	c0.3,0,0.5-0.2,0.6-0.4l6.4-13.5c0,0,0,0,0,0c0.4-0.9,0.6-2,0.6-3.1c0-4.2-3.4-7.7-7.7-7.7c-2.2,0-4.1,0.9-5.5,2.4
	c-2.2-0.7-4.5-1-6.9-1c-12.9,0-23.4,10.5-23.4,23.4c0,12.9,10.5,23.4,23.4,23.4c12.9,0,23.4-10.5,23.4-23.4
	C61.9,43.5,61.2,40.3,59.9,37.3z M50.9,25.4c2.2,0,3.9,1.8,3.9,3.9c0,2.2-1.8,3.9-3.9,3.9c-2.2,0-3.9-1.8-3.9-3.9
	C47,27.1,48.8,25.4,50.9,25.4z M39.2,25.7c1.6,0.1,3.2,0.3,4.8,0.7c-0.5,1-0.7,2.1-0.7,3.3c0,1.1,0.2,2.1,0.6,3c0,0,0,0.1,0,0.1
	l1.5,3.3c-2,0.4-4.1,0.6-6.2,0.6V25.7z M22.7,60.6c1.4-0.9,3.1-1.7,4.9-2.3c1.3,3.9,3.3,6.9,5.6,8.8C29,66,25.4,63.7,22.7,60.6z
	 M43.7,67.1c2.4-1.9,4.4-4.9,5.7-8.8c1.8,0.6,3.5,1.4,4.9,2.3C51.6,63.7,47.9,66,43.7,67.1z"/>
</svg>
