<?xml version="1.0" encoding="utf-8"?>
<!-- Generator: Adobe Illustrator 21.1.0, SVG Export Plug-In . SVG Version: 6.00 Build 0)  -->
<svg version="1.1" id="Layer_1" xmlns="http://www.w3.org/2000/svg" xmlns:xlink="http://www.w3.org/1999/xlink" x="0px" y="0px"
	 viewBox="0 0 68.7 66.3" style="enable-background:new 0 0 68.7 66.3;" xml:space="preserve">
<style type="text/css">
	.st0{fill:#FFD230;}
</style>
<path class="st0" d="M32.6,46.7c-0.7-0.2-1.4-0.5-2.4-0.7c-0.5-0.1-1.5-0.4-1.6-0.4c-1.6-0.4-2.5-1.1-1.8-2.4c0-0.1,0.1-0.1,0.2-0.2
	c0.5-0.5,1.4-0.8,2.3-0.8c0.1,0,0.1,0,0.2,0c1.6,0.1,2.4,0.7,2.5,1.9h3c0-1.3-0.6-2.3-1.5-3c-0.7-0.5-1.5-0.7-2.6-0.9V38h-3.1v2.3
	c-0.3,0.1-0.7,0.1-1,0.2c-0.3,0.1-0.7,0.2-1,0.4c-0.3,0.1-0.6,0.3-0.8,0.5c-1.5,1.2-1.7,3.1-1.1,4.7c0.2,0.5,0.6,0.8,1,1.1
	c0.4,0.3,0.9,0.6,1.4,0.8c0.1,0,0.3,0.1,0.4,0.1c0.1,0,0.3,0.1,0.4,0.1c1.7,0.8,6.1,0.5,5,3.4c-0.1,0.1-0.1,0.2-0.2,0.3
	c-0.1,0.1-0.2,0.2-0.3,0.3c-0.5,0.4-1.2,0.6-2.1,0.6c-2.1,0-3.2-0.8-3.2-2.4h-3c0.1,1.5,0.7,2.6,1.7,3.4c0.7,0.5,1.7,0.9,2.8,1v2.3
	h3.1v-2.3c0,0,0,0,0,0c1.2-0.2,2.9-0.7,3.8-2c0.1-0.2,0.2-0.3,0.3-0.5c0.7-1.5,0.6-3.5-0.8-4.7C33.8,47.3,33.3,47,32.6,46.7z
	 M63,16.5L25.3,3.8c-2.3-0.8-4.9,0.5-5.7,2.8l-7.4,22.1c-0.3,0.8,0.2,1.6,0.9,1.9c0.8,0.3,1.6-0.2,1.9-0.9l3.3-9.7l40.6,13.7
	l-3.7,11c-0.1,0.2-0.2,0.4-0.3,0.5V34.2c0-0.8-0.7-1.5-1.5-1.5H26.6c0,0,0,0,0,0c0.1-0.4-0.1-0.9-0.5-1.1c-0.4-0.1-0.9,0.1-1.1,0.5
	c-0.1,0.2-0.1,0.4,0,0.6H5.3c-0.8,0-1.5,0.7-1.5,1.5v27.1c0,0.8,0.7,1.5,1.5,1.5h48c0.8,0,1.5-0.7,1.5-1.5V48.4
	c1.5-0.4,2.7-1.4,3.2-2.9l7.9-23.3C66.6,19.8,65.4,17.3,63,16.5z M51.8,52.7c-3.7,0.6-6.5,3.5-7.2,7.1H14c-0.7-3.6-3.6-6.5-7.2-7.1
	V43c3.7-0.6,6.6-3.6,7.3-7.3H33c0,0,0.1,0,0.1,0.1c0.2,0.1,0.5,0,0.7-0.1h10.8c0.6,3.7,3.5,6.6,7.3,7.3V52.7z M63,21.2l-1.6,4.7
	L20.9,12.2l1.6-4.7c0.3-0.8,1.1-1.2,1.9-0.9l37.8,12.8C62.8,19.6,63.2,20.5,63,21.2z M19.1,30.1c0.1-0.4-0.1-0.9-0.5-1.1
	c-0.4-0.1-0.9,0.1-1.1,0.5c-0.1,0.4,0.1,0.9,0.5,1.1C18.4,30.8,18.9,30.6,19.1,30.1z M20,30.4c-0.1,0.4,0.1,0.9,0.5,1.1
	c0.4,0.1,0.9-0.1,1.1-0.5s-0.1-0.9-0.5-1.1C20.6,29.8,20.1,30,20,30.4z M35,29.7c0.3-0.9-0.2-1.8-1.1-2.1c-0.9-0.3-1.8,0.2-2.1,1.1
	s0.2,1.8,1.1,2.1S34.7,30.6,35,29.7z M21.3,23.4c-0.9-0.3-1.8,0.2-2.1,1.1c-0.3,0.9,0.2,1.8,1.1,2.1c0.9,0.3,1.8-0.2,2.1-1.1
	C22.7,24.6,22.2,23.7,21.3,23.4z M27.5,27.2c0.3-0.9-0.2-1.8-1.1-2.1c-0.9-0.3-1.8,0.2-2.1,1.1C24,27,24.5,28,25.3,28.3
	C26.2,28.6,27.2,28.1,27.5,27.2z M23,32.4c0.4,0.1,0.9-0.1,1.1-0.5c0.1-0.4-0.1-0.9-0.5-1.1c-0.4-0.1-0.9,0.1-1.1,0.5
	C22.4,31.7,22.6,32.2,23,32.4z"/>
</svg>
