<?xml version="1.0" encoding="utf-8"?>
<!-- Generator: Adobe Illustrator 21.1.0, SVG Export Plug-In . SVG Version: 6.00 Build 0)  -->
<svg version="1.1" id="Layer_1" xmlns="http://www.w3.org/2000/svg" xmlns:xlink="http://www.w3.org/1999/xlink" x="0px" y="0px"
	 viewBox="0 0 267 133.2" style="enable-background:new 0 0 267 133.2;" xml:space="preserve">
<style type="text/css">
	.st0{fill-rule:evenodd;clip-rule:evenodd;fill:#1C1C1B;}
	.st1{fill-rule:evenodd;clip-rule:evenodd;fill:#F7323F;}
	.st2{fill:#1C1C1B;}
	.st3{fill:#FFFFFF;}
</style>
<g>
	<path class="st0" d="M19.4,51.5h27.2V57h-9.1c-1.7,8.6-3.3,17.2-3.9,25.6H20c3-7.5,4.4-16.5,5.9-25.6h-9L19.4,51.5z"/>
	<path class="st0" d="M49.5,63.4H55c0.9,1,0.4,3.7-0.8,5.5h-5.3L49.5,63.4z M41.1,59.3h14.2h0.6h4.6c6.3,0,5.3,13.5-0.9,13.5h-0.3
		l2.5,9.9h-9c-1.4-3.1-1.7-6.7-2.4-10.2l-2.2,0c-1,3.3-1.8,6.6-1.7,10.2H35.9c0.8-1.4,1.5-3.1,2-5.2L41.1,59.3z"/>
	<path class="st0" d="M72.7,72.6h6.5l-0.9-8.2h-0.5L72.7,72.6z M74.3,59.3h11.4l2.4,16.2c0.4,2.5,1.1,4.9,1.8,7.3h-9.7l-0.6-6.4
		l-9.4,0l-3.2,6.3h-5.9c1.6-1.6,3.1-3.7,4.5-5.6l10.1-16.5c-0.2-0.5-0.7-0.9-1.4-1.2C74.3,59.5,74.3,59.4,74.3,59.3z"/>
	<path class="st0" d="M103.3,63h5.5c1.3,1.8-1.4,15.3-3.5,15.6h-4.9C101.5,73.8,103.3,68.1,103.3,63 M94.2,59.3h18.9
		c4.6,0,5.6,2.8,4.7,7.7L116,77.6c-0.9,3.1-2,5-5.2,5.2H90.1C91.8,75.5,94.1,66.9,94.2,59.3z"/>
	<path class="st0" d="M120.3,59.3h21.2l-0.2,4.6c-0.7-0.3-1.8-0.5-4.3-0.5l-7.4,0l-0.8,5.5l7.4,0c1.6,0,2.8-0.3,3.6-0.8l-0.8,5.1
		c-0.9-0.4-2-0.5-3-0.5l-8.5,0l-0.6,5.8l6.9,0c1.9,0.1,3.4-0.2,4.7-0.7l-1.4,5h-21.3C118.3,75.2,119.6,67.3,120.3,59.3"/>
	<path class="st1" d="M158.6,52.6c-1.8,6.7-3.9,17.4-5,25.5c5.2,0.5,10,0.2,14.4-0.7l-1.6,6.1h-26.4c2.9-7.1,4.5-22.2,5-30.9H158.6z
		"/>
	<path class="st1" d="M188.1,59.3h10.6l6.5,16.8c1.7-5.3,2.7-11,3.2-16.8h5.4c-2.3,7.2-3.7,15.4-5.3,23.4h-10.6l-6.3-16.7
		c-1.5,5.6-2.5,11.1-3,16.7h-5.4C185.5,75.7,187,67.7,188.1,59.3"/>
	<path class="st1" d="M215.4,60.1h10.3c-0.7,3-1.3,6.1-1.7,9.2l7.4-8.2c0.4-0.6,0.7-1.1,0.6-1.8l8.5,0c-2.9,2.2-5.7,5.4-8.1,8.7
		c1.1,3.3,3.3,9.3,5.2,14.4c1.8,4.9,3.1,9,5.8,11.1h-11.5c-2-5-5-12.2-7.6-18.3c-0.2-0.5-0.7,0.4-1.2,1c-0.6,2.5-0.8,5-0.7,7.6
		h-10.7C214.3,75.9,215.2,68,215.4,60.1"/>
	<path class="st0" d="M177.6,45.7c2.3,0.8,3.3,3.3,2.4,5.6c-0.9,2.3-3.5,3.6-5.7,2.8c-2.3-0.8-3.3-3.3-2.4-5.6
		C172.7,46.2,175.3,44.9,177.6,45.7"/>
	<path class="st0" d="M167.8,58.1c4.4,0.1,8.6-0.2,13.4-1.4c-1.4,6.8-2.8,13.7-4.2,20.5c-0.7,4.9,4.5,2.3,6.8-1.4
		c-0.4,2.4-1.7,5.1-4.5,6.6c-2.3,1.2-5.4,1.9-7.8,0.5c-2.9-1.7-2.3-5.9-1.2-10.1c0.7-2.9,1.5-5.8,2-7.8c0.8-4.1-0.1-5.8-3.6-5.4
		C167.8,59.9,167.3,58.1,167.8,58.1"/>
	<path class="st2" d="M227.6,92.1c0,0.2-0.1,0.4-0.2,0.6c-0.2,0.2-0.3,0.2-0.5,0.2c-0.2,0-0.3-0.1-0.4-0.2c-0.1-0.1-0.2-0.3-0.2-0.5
		c0-0.2,0.1-0.4,0.2-0.6c0.2-0.2,0.3-0.2,0.5-0.2c0.2,0,0.3,0.1,0.4,0.2C227.5,91.8,227.6,91.9,227.6,92.1 M224.6,92.8h-0.2
		c-0.1,0-0.2-0.1-0.2-0.1c-0.1,0-0.1,0-0.2,0c-0.1,0-0.4,0-0.8,0.1c-0.4,0.1-0.7,0.1-1,0.1c-0.3,0-0.6,0-0.9-0.1
		c-0.3-0.1-0.6-0.2-0.8-0.3c-0.4-0.3-0.8-0.6-1-1c-0.2-0.4-0.4-0.9-0.4-1.4c0-0.6,0.1-1.1,0.3-1.6c0.2-0.5,0.6-0.9,1-1.3
		c0.4-0.4,0.9-0.6,1.5-0.8c0.6-0.2,1.2-0.3,1.8-0.3c0.4,0,0.8,0,1.2,0.1c0.4,0.1,0.7,0.2,1,0.3l-0.4,1.7l-0.5,0
		c0-0.5-0.2-0.9-0.5-1.2c-0.3-0.3-0.7-0.4-1.2-0.4c-0.4,0-0.7,0.1-1,0.2c-0.3,0.1-0.6,0.4-0.9,0.6c-0.3,0.3-0.6,0.8-0.7,1.3
		c-0.2,0.5-0.3,1-0.3,1.6c0,0.7,0.2,1.2,0.5,1.6c0.3,0.4,0.7,0.6,1.3,0.6c0.4,0,0.9-0.1,1.3-0.3c0.4-0.2,0.8-0.5,1.1-1h0.5
		L224.6,92.8z M218,92.1c0,0.2-0.1,0.4-0.2,0.6c-0.2,0.2-0.3,0.2-0.5,0.2c-0.2,0-0.3-0.1-0.4-0.2c-0.1-0.1-0.2-0.3-0.2-0.5
		c0-0.2,0.1-0.4,0.2-0.6c0.2-0.2,0.3-0.2,0.5-0.2c0.2,0,0.3,0.1,0.4,0.2C217.9,91.8,218,91.9,218,92.1z M210.9,92.4l0.5-1.7l0.5,0
		c0,0.6,0.2,1,0.4,1.3c0.2,0.3,0.6,0.4,1.1,0.4c0.4,0,0.7-0.1,0.9-0.3c0.2-0.2,0.3-0.4,0.3-0.7c0-0.2,0-0.3-0.1-0.5
		c-0.1-0.1-0.3-0.3-0.5-0.6c-0.1-0.1-0.2-0.2-0.4-0.4c-1-0.8-1.4-1.5-1.4-2.1c0-0.5,0.2-1,0.6-1.4c0.4-0.4,0.9-0.5,1.5-0.5
		c0.2,0,0.5,0,0.8,0.1c0.3,0.1,0.5,0.1,0.6,0.1c0,0,0.1,0,0.2-0.1c0.1-0.1,0.2-0.1,0.3-0.1h0.3l-0.3,1.9l-0.4,0
		c-0.1-0.5-0.3-0.8-0.5-1.1c-0.2-0.2-0.6-0.4-0.9-0.4c-0.3,0-0.5,0.1-0.6,0.2c-0.1,0.1-0.2,0.3-0.2,0.6c0,0.3,0.3,0.8,1,1.5
		c0.1,0.1,0.2,0.1,0.2,0.2c0.5,0.5,0.9,0.9,1,1.1c0.2,0.3,0.2,0.6,0.2,0.9c0,0.5-0.2,1-0.7,1.4c-0.5,0.4-1.1,0.6-1.8,0.6
		c-0.3,0-0.7,0-1.1-0.1C211.8,92.8,211.4,92.6,210.9,92.4z M205.8,94.2c0.4-0.1,0.6-0.3,0.8-0.4c0.2-0.2,0.3-0.4,0.3-0.7
		c0-0.1-0.1-0.3-0.2-0.6c-0.1-0.2-0.2-0.4-0.2-0.6c0-0.2,0.1-0.3,0.2-0.4c0.1-0.1,0.3-0.2,0.5-0.2c0.2,0,0.4,0.1,0.6,0.3
		c0.1,0.2,0.2,0.4,0.2,0.7c0,0.5-0.2,0.9-0.5,1.3c-0.4,0.4-0.8,0.7-1.4,0.8L205.8,94.2z M202.3,93c-1.1,0-2-0.3-2.6-0.9
		c-0.6-0.6-1-1.4-1-2.3c0-0.5,0.1-0.9,0.3-1.4c0.2-0.4,0.4-0.8,0.8-1.1c0.4-0.4,0.8-0.7,1.3-0.9c0.5-0.2,1.1-0.3,1.7-0.3
		c1.1,0,1.9,0.3,2.5,0.9c0.6,0.6,0.9,1.4,0.9,2.3c0,0.5-0.1,0.9-0.3,1.4c-0.2,0.4-0.4,0.8-0.8,1.1c-0.4,0.4-0.8,0.7-1.3,0.9
		C203.4,92.9,202.9,93,202.3,93z M200.2,90.2c0,0.7,0.2,1.3,0.5,1.7c0.4,0.4,0.8,0.6,1.4,0.6c0.4,0,0.7-0.1,1-0.3
		c0.3-0.2,0.6-0.4,0.9-0.7c0.3-0.3,0.5-0.7,0.6-1.2c0.1-0.5,0.2-0.9,0.2-1.4c0-0.7-0.2-1.3-0.5-1.7c-0.3-0.4-0.8-0.6-1.4-0.6
		c-0.4,0-0.7,0.1-0.9,0.2c-0.3,0.1-0.5,0.4-0.8,0.7c-0.1,0.2-0.2,0.3-0.4,0.6c-0.1,0.2-0.2,0.4-0.3,0.7c-0.1,0.3-0.2,0.5-0.2,0.8
		C200.2,89.8,200.2,90,200.2,90.2z M196.9,92.8h-0.2c-0.1,0-0.2-0.1-0.2-0.1c-0.1,0-0.1,0-0.2,0c-0.1,0-0.4,0-0.8,0.1
		c-0.4,0.1-0.7,0.1-1,0.1c-0.3,0-0.6,0-0.9-0.1c-0.3-0.1-0.6-0.2-0.8-0.3c-0.4-0.3-0.8-0.6-1-1c-0.2-0.4-0.4-0.9-0.4-1.4
		c0-0.6,0.1-1.1,0.3-1.6c0.2-0.5,0.6-0.9,1-1.3c0.4-0.4,0.9-0.6,1.5-0.8c0.6-0.2,1.2-0.3,1.8-0.3c0.4,0,0.8,0,1.2,0.1
		c0.4,0.1,0.7,0.2,1,0.3l-0.4,1.7l-0.5,0c0-0.5-0.2-0.9-0.5-1.2c-0.3-0.3-0.7-0.4-1.2-0.4c-0.4,0-0.7,0.1-1,0.2
		c-0.3,0.1-0.6,0.4-0.9,0.6c-0.3,0.3-0.6,0.8-0.7,1.3c-0.2,0.5-0.3,1-0.3,1.6c0,0.7,0.2,1.2,0.5,1.6c0.3,0.4,0.7,0.6,1.3,0.6
		c0.4,0,0.9-0.1,1.3-0.3c0.4-0.2,0.8-0.5,1.1-1h0.5L196.9,92.8z M186.9,92.8l0.1-0.5c0.4,0,0.6-0.1,0.8-0.2c0.2-0.1,0.3-0.4,0.4-0.8
		l0.8-3.6c0-0.1,0-0.2,0-0.2c0-0.1,0-0.1,0-0.2c0-0.2-0.1-0.4-0.2-0.5c-0.1-0.1-0.4-0.1-0.7-0.1l0.1-0.4h3.5l-0.1,0.4
		c-0.4,0-0.6,0.1-0.8,0.2c-0.2,0.1-0.3,0.3-0.3,0.7l-0.8,3.9c0,0.1,0,0.2,0,0.2c0,0.1,0,0.1,0,0.2c0,0.2,0.1,0.4,0.2,0.4
		c0.1,0.1,0.3,0.1,0.7,0.1l-0.1,0.5H186.9z M180.7,92.8l0.1-0.5c0.4,0,0.6-0.1,0.8-0.2c0.2-0.1,0.3-0.4,0.4-0.8l0.8-3.6
		c0-0.1,0-0.2,0-0.2c0-0.1,0-0.1,0-0.2c0-0.2-0.1-0.4-0.2-0.5c-0.1-0.1-0.4-0.1-0.7-0.1l0.1-0.4h5.7l-0.3,1.6h-0.5v-0.1
		c0-0.4-0.1-0.6-0.3-0.8c-0.2-0.2-0.5-0.2-1-0.2h-1.1l-0.5,2.5h1.3c0.4,0,0.6-0.1,0.8-0.2c0.2-0.1,0.3-0.3,0.4-0.5h0.4l-0.4,2.1
		h-0.5c0,0,0-0.1,0-0.1c0-0.2,0-0.3,0-0.3c0-0.2-0.1-0.3-0.2-0.4c-0.1-0.1-0.4-0.1-0.7-0.1h-1.3l-0.3,1.6c0,0.1,0,0.2-0.1,0.3
		c0,0.1,0,0.2,0,0.2c0,0.3,0.3,0.5,0.8,0.5c0.1,0,0.1,0,0.1,0l-0.1,0.5H180.7z M179.9,85.6h-0.5l1.5-1.5c0.1-0.1,0.2-0.2,0.3-0.2
		c0.1,0,0.2-0.1,0.3-0.1c0.1,0,0.2,0,0.3,0.1c0.1,0.1,0.1,0.2,0.1,0.3c0,0.1,0,0.2-0.1,0.2c-0.1,0.1-0.1,0.1-0.2,0.2L179.9,85.6z
		 M177,92.8l0.1-0.5c0.4,0,0.6-0.1,0.8-0.2c0.2-0.1,0.3-0.4,0.4-0.8l0.8-3.6c0-0.1,0-0.2,0-0.2c0-0.1,0-0.1,0-0.2
		c0-0.2-0.1-0.4-0.2-0.5c-0.1-0.1-0.4-0.1-0.7-0.1l0.1-0.4h3.5l-0.1,0.4c-0.4,0-0.6,0.1-0.8,0.2c-0.2,0.1-0.3,0.3-0.3,0.7l-0.8,3.9
		c0,0.1,0,0.2,0,0.2c0,0.1,0,0.1,0,0.2c0,0.2,0.1,0.4,0.2,0.4c0.1,0.1,0.3,0.1,0.7,0.1l-0.1,0.5H177z M176,92.8h-0.2
		c-0.1,0-0.2-0.1-0.2-0.1c-0.1,0-0.1,0-0.2,0c-0.1,0-0.4,0-0.8,0.1c-0.4,0.1-0.7,0.1-1,0.1c-0.3,0-0.6,0-0.9-0.1
		c-0.3-0.1-0.6-0.2-0.8-0.3c-0.4-0.3-0.8-0.6-1-1c-0.2-0.4-0.4-0.9-0.4-1.4c0-0.6,0.1-1.1,0.3-1.6c0.2-0.5,0.6-0.9,1-1.3
		c0.4-0.4,0.9-0.6,1.5-0.8c0.6-0.2,1.2-0.3,1.8-0.3c0.4,0,0.8,0,1.2,0.1c0.4,0.1,0.7,0.2,1,0.3l-0.4,1.7l-0.5,0
		c0-0.5-0.2-0.9-0.5-1.2c-0.3-0.3-0.7-0.4-1.2-0.4c-0.4,0-0.7,0.1-1,0.2c-0.3,0.1-0.6,0.4-0.9,0.6c-0.3,0.3-0.6,0.8-0.7,1.3
		c-0.2,0.5-0.3,1-0.3,1.6c0,0.7,0.2,1.2,0.5,1.6c0.3,0.4,0.7,0.6,1.3,0.6c0.4,0,0.9-0.1,1.3-0.3c0.4-0.2,0.8-0.5,1.1-1h0.5L176,92.8
		z M162.7,92.8l0.1-0.5c0.5,0,1-0.4,1.6-1.2l0.1-0.1l3.6-4.9h1l0.3,5.3c0,0.4,0.1,0.6,0.2,0.8c0.1,0.1,0.4,0.2,0.8,0.2l-0.1,0.5
		h-3.4l0.1-0.5h0.1c0.4,0,0.6-0.1,0.7-0.2c0.1-0.1,0.2-0.3,0.2-0.6c0-0.1,0-0.1,0-0.2c0,0,0-0.1,0-0.1l0-1h-2.2l-0.8,1.1
		c-0.1,0.1-0.1,0.2-0.2,0.3c0,0.1-0.1,0.2-0.1,0.3c0,0.1,0.1,0.2,0.2,0.3c0.1,0.1,0.3,0.1,0.6,0.1l-0.1,0.5H162.7z M167.8,89.7
		l-0.1-2.3l-1.7,2.3H167.8z M157.6,92.8l0.1-0.5c0.4,0,0.6-0.1,0.8-0.2c0.2-0.1,0.3-0.4,0.4-0.8l0.8-3.6c0-0.1,0-0.2,0-0.2
		c0-0.1,0-0.1,0-0.2c0-0.2-0.1-0.4-0.2-0.5c-0.1-0.1-0.4-0.1-0.7-0.1l0.1-0.4h2.9c0.5,0,0.8,0,1.1,0.1c0.3,0,0.5,0.1,0.6,0.2
		c0.3,0.2,0.6,0.4,0.8,0.7c0.2,0.3,0.3,0.6,0.3,1c0,0.4-0.1,0.7-0.3,1.1c-0.2,0.3-0.5,0.6-0.8,0.8c-0.2,0.1-0.4,0.2-0.7,0.3
		c-0.3,0.1-0.5,0.1-0.8,0.1c-0.1,0-0.2,0-0.4,0c-0.1,0-0.3,0-0.5-0.1l0.1-0.4c0,0,0,0,0.1,0c0,0,0.1,0,0.1,0c0.5,0,0.9-0.2,1.2-0.5
		c0.3-0.4,0.4-0.9,0.4-1.5c0-0.4-0.1-0.7-0.3-0.9c-0.2-0.2-0.6-0.3-1-0.3c-0.1,0-0.1,0-0.2,0c-0.1,0-0.2,0-0.2,0l-1,4.7
		c0,0.1,0,0.2,0,0.2c0,0.1,0,0.1,0,0.2c0,0.2,0.1,0.4,0.2,0.4c0.1,0.1,0.3,0.1,0.7,0.1l-0.1,0.5H157.6z"/>
	<polygon class="st1" points="20.2,24 169.3,24 162,39.6 20.2,39.6 	"/>
	<path class="st3" d="M154.8,35.8h-1.2l0.3-1.4h1.2L154.8,35.8z M155.2,33.9h-1.2l1-5.4h1.2L155.2,33.9z M151.8,35.8h-1.2l0.3-1.4
		h1.2L151.8,35.8z M152.2,33.9H151l1-5.4h1.2L152.2,33.9z M146.4,29.7l0.2-1.2h1.2l-0.2,1.2H146.4z M145.2,35.8l1-5.5h1.2l-1,5.5
		H145.2z M142.4,35.8l0.8-4.3h-0.7l0.2-1.1h0.7l0.3-1.7h1.3l-0.3,1.7h0.8l-0.2,1.1h-0.8l-0.8,4.3H142.4z M136.1,31.3
		c-0.5,0-0.8,0.2-1.2,0.6c-0.3,0.4-0.5,0.8-0.5,1.3c0,0.5,0.1,0.8,0.4,1.1c0.3,0.3,0.6,0.4,1,0.4c0.5,0,0.9-0.2,1.2-0.6
		c0.3-0.4,0.5-0.8,0.5-1.4c0-0.4-0.1-0.8-0.4-1.1C136.8,31.5,136.4,31.3,136.1,31.3z M136.9,35.8l0.1-0.4c-0.2,0.2-0.4,0.3-0.6,0.4
		c-0.2,0.1-0.5,0.1-0.7,0.1c-0.7,0-1.3-0.2-1.8-0.7c-0.5-0.5-0.7-1.1-0.7-2c0-0.3,0-0.7,0.1-1c0.1-0.3,0.2-0.6,0.4-0.9
		c0.3-0.4,0.6-0.7,1-0.9c0.4-0.2,0.8-0.3,1.3-0.3c0.4,0,0.7,0.1,1,0.2c0.3,0.1,0.6,0.3,0.8,0.6l0.1-0.7h1.2l-1,5.5H136.9z
		 M129.2,35.8l1-5.5h1.1l-0.1,0.7c0.2-0.3,0.5-0.5,0.8-0.7c0.3-0.1,0.6-0.2,1-0.2h0l-0.2,1.3c-0.6,0-1,0.1-1.2,0.4
		c-0.3,0.2-0.5,0.6-0.6,1.2l-0.5,2.8H129.2z M126,31.3c-0.5,0-0.8,0.2-1.2,0.6c-0.3,0.4-0.5,0.8-0.5,1.3c0,0.5,0.1,0.8,0.4,1.1
		c0.3,0.3,0.6,0.4,1,0.4c0.5,0,0.9-0.2,1.2-0.6c0.3-0.4,0.5-0.8,0.5-1.4c0-0.4-0.1-0.8-0.4-1.1C126.7,31.5,126.4,31.3,126,31.3z
		 M126.9,35.8l0.1-0.4c-0.2,0.2-0.4,0.3-0.6,0.4c-0.2,0.1-0.5,0.1-0.7,0.1c-0.7,0-1.3-0.2-1.8-0.7c-0.5-0.5-0.7-1.1-0.7-2
		c0-0.3,0-0.7,0.1-1c0.1-0.3,0.2-0.6,0.4-0.9c0.3-0.4,0.6-0.7,1-0.9c0.4-0.2,0.8-0.3,1.3-0.3c0.4,0,0.7,0.1,1,0.2
		c0.3,0.1,0.6,0.3,0.8,0.6l0.1-0.7h1.2l-1,5.5H126.9z M116.2,37.6l1.3-7.3h1.2l-0.1,0.3c0.2-0.2,0.4-0.3,0.7-0.3
		c0.2-0.1,0.5-0.1,0.8-0.1c0.7,0,1.3,0.2,1.7,0.7c0.5,0.5,0.7,1.1,0.7,1.9c0,0.4-0.1,0.8-0.2,1.2c-0.1,0.4-0.4,0.7-0.6,1
		c-0.3,0.3-0.6,0.5-0.9,0.6c-0.4,0.1-0.7,0.2-1.2,0.2c-0.4,0-0.7-0.1-1-0.2c-0.3-0.1-0.5-0.3-0.7-0.6l-0.4,2.4H116.2z M118.2,33.2
		c0,0.5,0.1,0.8,0.4,1.1c0.3,0.3,0.6,0.4,1,0.4c0.5,0,0.9-0.2,1.2-0.5c0.3-0.4,0.5-0.8,0.5-1.4c0-0.4-0.1-0.8-0.4-1.1
		c-0.3-0.3-0.6-0.4-1-0.4c-0.5,0-0.8,0.2-1.2,0.5C118.4,32.3,118.2,32.7,118.2,33.2z M111.4,35.8l1.3-7.3h1.2l-1.4,7.3H111.4z
		 M110.3,29.7l0.2-1.2h1.2l-0.2,1.2H110.3z M109.1,35.8l1-5.5h1.2l-1,5.5H109.1z M108.9,33.9c-0.2,0.7-0.6,1.2-1,1.5
		c-0.5,0.4-1,0.5-1.7,0.5c-0.7,0-1.4-0.2-1.8-0.7c-0.5-0.5-0.7-1.1-0.7-1.9c0-0.5,0.1-0.9,0.3-1.3c0.2-0.4,0.4-0.8,0.8-1.1
		c0.2-0.2,0.5-0.4,0.8-0.5c0.3-0.1,0.7-0.2,1-0.2c0.7,0,1.2,0.2,1.7,0.6c0.4,0.4,0.7,0.9,0.9,1.5h-1.2c-0.1-0.3-0.3-0.5-0.5-0.7
		c-0.2-0.2-0.5-0.2-0.8-0.2c-0.5,0-0.9,0.2-1.2,0.5c-0.3,0.4-0.5,0.8-0.5,1.4c0,0.4,0.1,0.8,0.4,1.1c0.3,0.3,0.6,0.4,1,0.4
		c0.3,0,0.6-0.1,0.8-0.2c0.2-0.1,0.4-0.4,0.6-0.6H108.9z M100.8,29.6h-0.6l1.1-1.7h1L100.8,29.6z M100.3,31.3
		c-0.5,0-0.8,0.2-1.2,0.6c-0.3,0.4-0.5,0.8-0.5,1.3c0,0.5,0.1,0.8,0.4,1.1c0.3,0.3,0.6,0.4,1,0.4c0.5,0,0.9-0.2,1.2-0.6
		c0.3-0.4,0.5-0.8,0.5-1.4c0-0.4-0.1-0.8-0.4-1.1C101,31.5,100.7,31.3,100.3,31.3z M101.1,35.8l0.1-0.4c-0.2,0.2-0.4,0.3-0.6,0.4
		c-0.2,0.1-0.5,0.1-0.7,0.1c-0.7,0-1.3-0.2-1.8-0.7c-0.5-0.5-0.7-1.1-0.7-2c0-0.3,0-0.7,0.1-1c0.1-0.3,0.2-0.6,0.4-0.9
		c0.3-0.4,0.6-0.7,1-0.9c0.4-0.2,0.8-0.3,1.3-0.3c0.4,0,0.7,0.1,1,0.2c0.3,0.1,0.6,0.3,0.8,0.6l0.1-0.7h1.2l-1,5.5H101.1z
		 M94.3,35.8l0.8-4.3h-0.8l0.2-1.1h0.8c0.1-0.6,0.3-1.1,0.6-1.4c0.3-0.3,0.8-0.4,1.5-0.4c0.1,0,0.2,0,0.4,0l0,0l-0.2,1.2
		c0,0,0,0,0,0c-0.1,0-0.3,0-0.3,0c-0.3,0-0.4,0.1-0.6,0.2c-0.1,0.1-0.2,0.3-0.2,0.5h0.8l-0.2,1.1h-0.8l-0.8,4.3H94.3z M87,34h1.2v0
		c0,0.2,0.1,0.4,0.2,0.6c0.1,0.1,0.3,0.2,0.4,0.2c0.1,0,0.3,0,0.4-0.1c0.1-0.1,0.1-0.2,0.1-0.4c0-0.1,0-0.2-0.1-0.3
		c-0.1-0.1-0.2-0.2-0.4-0.3c-0.1-0.1-0.2-0.2-0.4-0.3c-0.3-0.2-0.5-0.3-0.6-0.4c-0.1-0.2-0.2-0.3-0.3-0.5c-0.1-0.2-0.1-0.3-0.1-0.5
		c0-0.5,0.2-0.9,0.5-1.2c0.3-0.3,0.8-0.5,1.3-0.5c0.5,0,0.9,0.2,1.2,0.5c0.3,0.3,0.5,0.7,0.5,1.2v0.1l-1.2,0c0-0.2,0-0.4-0.1-0.5
		c-0.1-0.1-0.2-0.2-0.3-0.2c-0.1,0-0.2,0-0.3,0.1c-0.1,0.1-0.1,0.2-0.1,0.3c0,0.2,0.2,0.4,0.6,0.7c0.1,0,0.1,0.1,0.2,0.1
		c0.4,0.3,0.7,0.5,0.9,0.8c0.2,0.2,0.2,0.5,0.2,0.8c0,0.5-0.2,1-0.5,1.3c-0.3,0.4-0.8,0.5-1.3,0.5c-0.6,0-1-0.2-1.3-0.5
		c-0.3-0.3-0.5-0.7-0.5-1.3c0,0,0,0,0-0.1C87,34.1,87,34,87,34z M81.2,33.3c0-0.5,0.1-0.9,0.3-1.3c0.2-0.4,0.4-0.8,0.8-1.1
		c0.3-0.2,0.5-0.4,0.9-0.5c0.3-0.1,0.7-0.2,1-0.2c0.7,0,1.4,0.2,1.8,0.7c0.5,0.5,0.7,1.1,0.7,1.9c0,0.4-0.1,0.8-0.2,1.2
		c-0.1,0.4-0.4,0.7-0.6,1c-0.3,0.3-0.6,0.5-0.9,0.6c-0.4,0.1-0.7,0.2-1.2,0.2c-0.7,0-1.3-0.2-1.8-0.7C81.4,34.7,81.2,34.1,81.2,33.3
		z M84,31.3c-0.5,0-0.9,0.2-1.2,0.5c-0.3,0.4-0.5,0.8-0.5,1.4c0,0.4,0.1,0.8,0.4,1.1c0.3,0.3,0.6,0.4,1,0.4c0.5,0,0.9-0.2,1.2-0.5
		c0.3-0.4,0.5-0.8,0.5-1.4c0-0.5-0.1-0.8-0.4-1.1C84.8,31.5,84.4,31.3,84,31.3z M73.9,30.3l-0.1,0.5c0.2-0.2,0.4-0.4,0.7-0.5
		c0.2-0.1,0.5-0.2,0.8-0.2c0.4,0,0.7,0.1,1,0.2c0.3,0.2,0.5,0.4,0.6,0.7c0.2-0.3,0.5-0.5,0.8-0.7c0.3-0.2,0.6-0.2,1-0.2
		c0.6,0,1,0.2,1.3,0.5c0.3,0.3,0.5,0.8,0.5,1.3c0,0.3-0.1,0.7-0.2,1.2c0,0,0,0.1,0,0.1l-0.5,2.5h-1.3l0.5-2.9c0-0.1,0-0.2,0.1-0.3
		c0-0.1,0-0.2,0-0.3c0-0.3-0.1-0.5-0.2-0.7c-0.1-0.2-0.3-0.2-0.6-0.2c-0.4,0-0.7,0.1-0.9,0.4c-0.2,0.3-0.4,0.7-0.5,1.3l-0.5,2.8
		h-1.3l0.5-2.9c0-0.1,0-0.2,0.1-0.3c0-0.1,0-0.2,0-0.3c0-0.3-0.1-0.5-0.2-0.7c-0.1-0.2-0.3-0.2-0.6-0.2c-0.4,0-0.7,0.1-0.9,0.4
		c-0.2,0.3-0.4,0.7-0.5,1.3L73,35.8h-1.2l1-5.5H73.9z M71.3,34.1c-0.2,0.6-0.6,1.1-1,1.4c-0.5,0.3-1,0.5-1.6,0.5
		c-0.7,0-1.3-0.2-1.8-0.7c-0.5-0.5-0.7-1.1-0.7-1.9c0-0.5,0.1-0.9,0.3-1.3c0.2-0.4,0.4-0.8,0.8-1.1c0.3-0.2,0.5-0.4,0.9-0.5
		c0.3-0.1,0.7-0.2,1-0.2c0.7,0,1.4,0.2,1.8,0.7c0.5,0.5,0.7,1.1,0.7,1.9c0,0.1,0,0.2,0,0.3c0,0.1,0,0.2,0,0.4h-4.2
		c0.1,0.4,0.2,0.7,0.5,0.9c0.2,0.2,0.5,0.3,0.9,0.3c0.3,0,0.5-0.1,0.7-0.2c0.2-0.1,0.4-0.3,0.6-0.5H71.3z M67.5,32.5h2.9
		c-0.1-0.3-0.3-0.6-0.5-0.8c-0.2-0.2-0.5-0.3-0.9-0.3c-0.3,0-0.6,0.1-0.9,0.3C67.8,31.8,67.6,32.1,67.5,32.5z M65.7,33.9
		c-0.2,0.7-0.6,1.2-1,1.5c-0.5,0.4-1,0.5-1.7,0.5c-0.7,0-1.4-0.2-1.8-0.7c-0.5-0.5-0.7-1.1-0.7-1.9c0-0.5,0.1-0.9,0.3-1.3
		c0.2-0.4,0.4-0.8,0.8-1.1c0.2-0.2,0.5-0.4,0.8-0.5c0.3-0.1,0.7-0.2,1-0.2c0.7,0,1.2,0.2,1.7,0.6c0.4,0.4,0.7,0.9,0.9,1.5h-1.2
		c-0.1-0.3-0.3-0.5-0.5-0.7c-0.2-0.2-0.5-0.2-0.8-0.2c-0.5,0-0.9,0.2-1.2,0.5c-0.3,0.4-0.5,0.8-0.5,1.4c0,0.4,0.1,0.8,0.4,1.1
		c0.3,0.3,0.6,0.4,1,0.4c0.3,0,0.6-0.1,0.8-0.2c0.2-0.1,0.4-0.4,0.6-0.6H65.7z M57.1,31.3c-0.5,0-0.8,0.2-1.2,0.6
		c-0.3,0.4-0.5,0.8-0.5,1.3c0,0.5,0.1,0.8,0.4,1.1c0.3,0.3,0.6,0.4,1,0.4c0.5,0,0.9-0.2,1.2-0.6c0.3-0.4,0.5-0.8,0.5-1.4
		c0-0.4-0.1-0.8-0.4-1.1C57.8,31.5,57.5,31.3,57.1,31.3z M57.9,35.8l0.1-0.4c-0.2,0.2-0.4,0.3-0.6,0.4c-0.2,0.1-0.5,0.1-0.7,0.1
		c-0.7,0-1.3-0.2-1.8-0.7c-0.5-0.5-0.7-1.1-0.7-2c0-0.3,0-0.7,0.1-1c0.1-0.3,0.2-0.6,0.4-0.9c0.3-0.4,0.6-0.7,1-0.9
		c0.4-0.2,0.8-0.3,1.3-0.3c0.4,0,0.7,0.1,1,0.2c0.3,0.1,0.6,0.3,0.8,0.6l0.1-0.7h1.2l-1,5.5H57.9z M48.2,35.8l1.3-7.3h1.2l-0.4,2.2
		c0.2-0.2,0.4-0.3,0.6-0.4c0.2-0.1,0.4-0.1,0.7-0.1c0.6,0,1.1,0.2,1.4,0.5c0.3,0.3,0.5,0.7,0.5,1.3c0,0.1,0,0.3,0,0.5
		c0,0.2-0.1,0.5-0.1,0.8l-0.5,2.5h-1.3l0.5-2.9c0-0.1,0-0.2,0.1-0.3c0-0.1,0-0.2,0-0.3c0-0.3-0.1-0.5-0.2-0.7
		c-0.1-0.2-0.3-0.2-0.6-0.2c-0.4,0-0.7,0.1-0.9,0.4C50.2,32,50,32.5,49.9,33l-0.5,2.8H48.2z M39.6,33.3c0-0.5,0.1-0.9,0.3-1.3
		c0.2-0.4,0.4-0.8,0.8-1.1c0.3-0.2,0.5-0.4,0.9-0.5c0.3-0.1,0.7-0.2,1-0.2c0.7,0,1.4,0.2,1.8,0.7c0.5,0.5,0.7,1.1,0.7,1.9
		c0,0.4-0.1,0.8-0.2,1.2c-0.1,0.4-0.4,0.7-0.6,1c-0.3,0.3-0.6,0.5-0.9,0.6C43,35.9,42.6,36,42.2,36c-0.7,0-1.3-0.2-1.8-0.7
		C39.9,34.7,39.6,34.1,39.6,33.3z M42.5,31.3c-0.5,0-0.9,0.2-1.2,0.5c-0.3,0.4-0.5,0.8-0.5,1.4c0,0.4,0.1,0.8,0.4,1.1
		c0.3,0.3,0.6,0.4,1,0.4c0.5,0,0.9-0.2,1.2-0.5c0.3-0.4,0.5-0.8,0.5-1.4c0-0.5-0.1-0.8-0.4-1.1C43.3,31.5,42.9,31.3,42.5,31.3z
		 M37.1,35.8l1.3-7.3h1.2l-1.3,7.3H37.1z"/>
	<rect x="14" y="28.4" class="st0" width="14.3" height="7.2"/>
	<path class="st2" d="M242.9,106.9v-0.8c-0.2,0.3-0.4,0.5-0.7,0.7c-0.3,0.1-0.7,0.2-1.2,0.2c-0.9,0-1.7-0.3-2.3-0.9
		c-0.6-0.6-0.9-1.4-0.9-2.3c0-0.4,0.1-0.8,0.2-1.2c0.2-0.4,0.4-0.7,0.7-1c0.3-0.3,0.6-0.6,1-0.7c0.4-0.2,0.8-0.2,1.3-0.2
		c0.4,0,0.8,0.1,1.2,0.2c0.3,0.2,0.6,0.4,0.8,0.7v-0.7h1.4v6.2H242.9z M239.2,103.7c0,0.5,0.2,1,0.5,1.3c0.3,0.3,0.8,0.5,1.3,0.5
		c0.5,0,0.8-0.2,1.2-0.5c0.3-0.4,0.5-0.8,0.5-1.2c0-0.5-0.2-0.9-0.5-1.3c-0.3-0.4-0.7-0.5-1.2-0.5c-0.5,0-0.9,0.2-1.2,0.5
		C239.4,102.8,239.2,103.2,239.2,103.7z M235.6,102.9c-0.2-0.3-0.4-0.6-0.7-0.7c-0.3-0.2-0.6-0.2-0.9-0.2c-0.5,0-0.9,0.2-1.2,0.5
		c-0.3,0.4-0.5,0.8-0.5,1.3c0,0.5,0.2,1,0.5,1.3c0.3,0.3,0.8,0.5,1.3,0.5c0.4,0,0.7-0.1,1-0.3c0.3-0.2,0.5-0.4,0.6-0.7h1.5
		c-0.2,0.8-0.6,1.3-1.1,1.8c-0.5,0.4-1.2,0.6-2,0.6c-0.5,0-0.9-0.1-1.3-0.2c-0.4-0.2-0.7-0.4-1.1-0.7c-0.3-0.3-0.5-0.6-0.7-1
		c-0.2-0.4-0.2-0.8-0.2-1.2c0-0.4,0.1-0.8,0.2-1.2c0.1-0.4,0.4-0.7,0.7-1c0.3-0.3,0.7-0.6,1.1-0.8c0.4-0.2,0.8-0.3,1.3-0.3
		c0.8,0,1.4,0.2,2,0.6c0.6,0.4,0.9,1,1.1,1.7H235.6z M228.5,106.9v-6.2h1.4v6.2H228.5z M229.9,100.1h-1.4v-1.4h1.4V100.1z
		 M225.4,106.9V102h-0.9v-1.3h0.9v-2h1.4v2h1v1.3h-1v4.9H225.4z M221.2,104.8L221.2,104.8c0,0.4,0.1,0.6,0.2,0.7
		c0.1,0.2,0.3,0.3,0.5,0.3c0.2,0,0.4-0.1,0.5-0.2c0.1-0.1,0.2-0.3,0.2-0.5c0-0.2,0-0.3-0.1-0.5c-0.1-0.1-0.3-0.2-0.5-0.4
		c-0.1-0.1-0.3-0.2-0.6-0.3c-0.3-0.1-0.5-0.2-0.5-0.3c-0.2-0.2-0.4-0.4-0.5-0.6c-0.1-0.2-0.2-0.5-0.2-0.8c0-0.5,0.2-1,0.5-1.3
		c0.4-0.4,0.8-0.5,1.3-0.5c0.5,0,1,0.2,1.3,0.5c0.3,0.3,0.5,0.8,0.5,1.3h-1.3v0c0-0.2-0.1-0.4-0.2-0.5c-0.1-0.1-0.2-0.2-0.4-0.2
		c-0.2,0-0.3,0.1-0.4,0.2c-0.1,0.1-0.2,0.2-0.2,0.4c0,0.3,0.3,0.5,0.8,0.7c0.1,0.1,0.3,0.1,0.3,0.1c0.5,0.2,0.9,0.5,1.1,0.8
		c0.2,0.3,0.3,0.6,0.3,1.1c0,0.6-0.2,1-0.6,1.4c-0.4,0.4-0.9,0.6-1.5,0.6c-0.6,0-1.1-0.2-1.4-0.6c-0.4-0.4-0.6-0.9-0.6-1.6
		L221.2,104.8z M217.5,99.9l1.1-1.9h1.2l-1.7,1.9H217.5z M217.6,106.9v-6.2h1.4v6.2H217.6z M211.3,103.7c0,0.5,0.2,1,0.5,1.3
		c0.4,0.4,0.8,0.5,1.3,0.5c0.5,0,0.9-0.2,1.3-0.5c0.4-0.4,0.6-0.8,0.6-1.3c0-0.5-0.2-1-0.5-1.3c-0.4-0.4-0.8-0.6-1.3-0.6
		c-0.5,0-1,0.2-1.3,0.5C211.5,102.7,211.3,103.2,211.3,103.7z M215.1,100.7h1.3v5.1c0,1.1-0.3,1.9-0.9,2.5c-0.6,0.6-1.4,0.9-2.3,0.9
		c-0.7,0-1.4-0.2-1.9-0.5c-0.5-0.3-0.9-0.9-1.1-1.6h1.4c0.1,0.3,0.4,0.5,0.6,0.6c0.3,0.2,0.6,0.2,0.9,0.2c0.6,0,1-0.2,1.4-0.6
		c0.4-0.4,0.5-0.9,0.5-1.5V106c-0.3,0.3-0.6,0.5-0.9,0.7c-0.4,0.1-0.7,0.2-1.2,0.2c-0.4,0-0.8-0.1-1.2-0.2c-0.4-0.1-0.7-0.3-1-0.6
		c-0.3-0.3-0.5-0.6-0.7-1c-0.2-0.4-0.3-0.8-0.3-1.2c0-0.9,0.3-1.7,0.9-2.3c0.6-0.6,1.3-0.9,2.2-0.9c0.4,0,0.8,0.1,1.1,0.2
		c0.3,0.1,0.7,0.4,1,0.7V100.7z M202.9,103.7c0-0.4,0.1-0.8,0.2-1.2c0.2-0.4,0.4-0.7,0.7-1c0.3-0.3,0.7-0.5,1-0.7
		c0.4-0.2,0.8-0.2,1.2-0.2c0.4,0,0.9,0.1,1.2,0.2c0.4,0.1,0.7,0.4,1,0.7c0.3,0.3,0.6,0.7,0.7,1.1c0.2,0.4,0.3,0.8,0.3,1.2
		c0,0.5-0.1,0.9-0.2,1.3c-0.2,0.4-0.4,0.7-0.7,1.1c-0.3,0.3-0.7,0.6-1,0.7c-0.4,0.2-0.8,0.2-1.3,0.2c-0.5,0-0.9-0.1-1.3-0.2
		c-0.4-0.2-0.7-0.4-1-0.7c-0.3-0.3-0.5-0.7-0.7-1.1C203,104.6,202.9,104.2,202.9,103.7z M204.4,103.7c0,0.6,0.2,1,0.5,1.4
		c0.3,0.3,0.7,0.5,1.3,0.5c0.5,0,1-0.2,1.3-0.5c0.3-0.3,0.5-0.8,0.5-1.4c0-0.5-0.2-0.9-0.5-1.3c-0.3-0.3-0.7-0.5-1.2-0.5
		c-0.5,0-0.9,0.2-1.3,0.5C204.5,102.8,204.4,103.2,204.4,103.7z M202.6,106.9h-4.1v-8.1h1.6v6.7h2.6V106.9z M188.5,100.7h1.5
		l1.5,4.3l1.7-4.3h1.5l-3.3,8.1h-1.5l0.9-2.2L188.5,100.7z M182.2,104.8L182.2,104.8c0,0.4,0.1,0.6,0.2,0.7c0.1,0.2,0.3,0.3,0.5,0.3
		c0.2,0,0.4-0.1,0.5-0.2c0.1-0.1,0.2-0.3,0.2-0.5c0-0.2,0-0.3-0.1-0.5c-0.1-0.1-0.3-0.2-0.5-0.4c-0.1-0.1-0.3-0.2-0.6-0.3
		c-0.3-0.1-0.5-0.2-0.5-0.3c-0.2-0.2-0.4-0.4-0.5-0.6c-0.1-0.2-0.2-0.5-0.2-0.8c0-0.5,0.2-1,0.5-1.3c0.4-0.4,0.8-0.5,1.3-0.5
		c0.5,0,1,0.2,1.3,0.5c0.3,0.3,0.5,0.8,0.5,1.3h-1.3v0c0-0.2-0.1-0.4-0.2-0.5c-0.1-0.1-0.2-0.2-0.4-0.2c-0.2,0-0.3,0.1-0.4,0.2
		c-0.1,0.1-0.2,0.2-0.2,0.4c0,0.3,0.3,0.5,0.8,0.7c0.1,0.1,0.3,0.1,0.3,0.1c0.5,0.2,0.9,0.5,1.1,0.8c0.2,0.3,0.3,0.6,0.3,1.1
		c0,0.6-0.2,1-0.6,1.4c-0.4,0.4-0.9,0.6-1.5,0.6c-0.6,0-1.1-0.2-1.4-0.6c-0.4-0.4-0.6-0.9-0.6-1.6L182.2,104.8z M178.6,106.9v-0.8
		c-0.2,0.3-0.4,0.5-0.7,0.7c-0.3,0.1-0.7,0.2-1.2,0.2c-0.9,0-1.7-0.3-2.3-0.9c-0.6-0.6-0.9-1.4-0.9-2.3c0-0.4,0.1-0.8,0.2-1.2
		c0.2-0.4,0.4-0.7,0.7-1c0.3-0.3,0.6-0.6,1-0.7c0.4-0.2,0.8-0.2,1.3-0.2c0.4,0,0.8,0.1,1.2,0.2c0.3,0.2,0.6,0.4,0.8,0.7v-0.7h1.4
		v6.2H178.6z M174.9,103.7c0,0.5,0.2,1,0.5,1.3c0.3,0.3,0.8,0.5,1.3,0.5c0.5,0,0.8-0.2,1.2-0.5c0.3-0.4,0.5-0.8,0.5-1.2
		c0-0.5-0.2-0.9-0.5-1.3c-0.3-0.4-0.7-0.5-1.2-0.5c-0.5,0-0.9,0.2-1.2,0.5C175.1,102.8,174.9,103.2,174.9,103.7z M168.6,100.7v0.7
		c0.2-0.3,0.4-0.5,0.7-0.6c0.3-0.1,0.6-0.2,0.9-0.2c0.4,0,0.8,0.1,1.2,0.3c0.3,0.2,0.6,0.4,0.8,0.8c0.1,0.2,0.2,0.5,0.3,0.8
		c0.1,0.3,0.1,0.7,0.1,1.3v3.3h-1.4v-2.7c0-0.8-0.1-1.4-0.3-1.7c-0.2-0.3-0.5-0.5-1-0.5c-0.5,0-0.8,0.2-1,0.5
		c-0.2,0.3-0.3,0.9-0.3,1.7v2.6h-1.4v-6.2H168.6z M164.5,106.9v-0.8c-0.2,0.3-0.4,0.5-0.7,0.7c-0.3,0.1-0.7,0.2-1.2,0.2
		c-0.9,0-1.7-0.3-2.3-0.9c-0.6-0.6-0.9-1.4-0.9-2.3c0-0.4,0.1-0.8,0.2-1.2c0.2-0.4,0.4-0.7,0.7-1c0.3-0.3,0.6-0.6,1-0.7
		c0.4-0.2,0.8-0.2,1.3-0.2c0.4,0,0.8,0.1,1.2,0.2c0.3,0.2,0.6,0.4,0.8,0.7v-0.7h1.4v6.2H164.5z M160.9,103.7c0,0.5,0.2,1,0.5,1.3
		c0.3,0.3,0.8,0.5,1.3,0.5c0.5,0,0.8-0.2,1.2-0.5c0.3-0.4,0.5-0.8,0.5-1.2c0-0.5-0.2-0.9-0.5-1.3c-0.3-0.4-0.7-0.5-1.2-0.5
		c-0.5,0-0.9,0.2-1.2,0.5C161.1,102.8,160.9,103.2,160.9,103.7z M157.1,106.9v-0.7c-0.2,0.3-0.4,0.5-0.7,0.6
		c-0.3,0.1-0.6,0.2-0.9,0.2c-0.8,0-1.4-0.2-1.8-0.7c-0.4-0.5-0.6-1.2-0.6-2v-3.6h1.4v2.8c0,0.8,0.1,1.4,0.3,1.7
		c0.2,0.3,0.5,0.5,1,0.5c0.5,0,0.8-0.2,1-0.5c0.2-0.3,0.3-0.9,0.3-1.7v-2.7h1.4v6.2H157.1z M150.5,101.2v-2.5h1.4v8.1h-1.4v-0.5
		c-0.3,0.2-0.6,0.4-0.9,0.5c-0.3,0.1-0.7,0.2-1,0.2c-0.4,0-0.8-0.1-1.1-0.2c-0.3-0.1-0.7-0.3-0.9-0.5c-0.4-0.3-0.7-0.7-0.9-1.1
		c-0.2-0.4-0.3-0.9-0.3-1.4c0-0.5,0.1-0.9,0.3-1.3c0.2-0.4,0.4-0.8,0.8-1.1c0.3-0.3,0.6-0.5,1-0.6c0.4-0.1,0.7-0.2,1.2-0.2
		c0.4,0,0.7,0.1,1.1,0.2C150,100.8,150.2,101,150.5,101.2z M150.5,103.8c0-0.5-0.2-1-0.5-1.3c-0.3-0.3-0.8-0.5-1.3-0.5
		c-0.5,0-0.9,0.2-1.3,0.5c-0.3,0.4-0.5,0.8-0.5,1.3c0,0.5,0.2,1,0.5,1.3c0.4,0.3,0.8,0.5,1.3,0.5c0.5,0,0.9-0.2,1.2-0.5
		C150.3,104.7,150.5,104.3,150.5,103.8z M140.1,105.1l-0.6,1.7h-1.7l3.2-8.1h1.4l3.1,8.1h-1.7l-0.6-1.7H140.1z M142.6,103.6l-1-2.6
		l-1,2.6H142.6z"/>
	<path class="st2" d="M249.2,96.3c-2.1,0-3.8-1.7-3.8-3.8c0-2.1,1.7-3.8,3.8-3.8c2.1,0,3.8,1.7,3.8,3.8
		C253,94.6,251.3,96.3,249.2,96.3z M249.2,89.6c-1.6,0-2.9,1.3-2.9,2.9c0,1.6,1.3,2.9,2.9,2.9c1.6,0,2.9-1.3,2.9-2.9
		C252.1,90.9,250.8,89.6,249.2,89.6z"/>
	<path class="st2" d="M247.7,94.3v-3.6h1.8c0.4,0,0.7,0.1,0.9,0.3c0.2,0.2,0.3,0.4,0.3,0.8c0,0.2,0,0.4-0.1,0.6
		c-0.1,0.1-0.2,0.3-0.4,0.3c0.2,0.1,0.3,0.1,0.3,0.3c0.1,0.1,0.1,0.3,0.1,0.5l0,0.4c0,0,0,0,0,0c0,0.2,0.1,0.4,0.1,0.4v0.1h-0.8
		c0-0.1,0-0.1-0.1-0.2c0-0.1,0-0.2,0-0.3l0-0.4c0-0.2-0.1-0.4-0.1-0.5c-0.1-0.1-0.2-0.1-0.4-0.1h-0.8v1.4H247.7z M248.5,92.3h0.9
		c0.2,0,0.3,0,0.4-0.1c0.1-0.1,0.1-0.2,0.1-0.4c0-0.2,0-0.3-0.1-0.4c-0.1-0.1-0.2-0.1-0.4-0.1h-0.9V92.3z"/>
</g>
</svg>
