<?xml version="1.0" encoding="utf-8"?>
<!-- Generator: Adobe Illustrator 21.1.0, SVG Export Plug-In . SVG Version: 6.00 Build 0)  -->
<svg version="1.1" id="Layer_1" xmlns="http://www.w3.org/2000/svg" xmlns:xlink="http://www.w3.org/1999/xlink" x="0px" y="0px"
	 viewBox="0 0 132 133.2" style="enable-background:new 0 0 132 133.2;" xml:space="preserve">
<style type="text/css">
	.st0{fill:#1C1C1B;}
</style>
<g>
	<g>
		<path class="st0" d="M26.7,83.6c-0.2-0.4-0.4-0.7-0.7-0.9c-0.3-0.2-0.6-0.2-0.9-0.1c-0.3,0.1-0.5,0.4-0.6,0.7
			c-0.1,0.3,0,0.9,0.1,1.8c0.2,0.9,0.1,1.6,0,2.2c-0.2,0.6-0.6,1-1.3,1.3c-0.7,0.3-1.4,0.3-2,0c-0.7-0.3-1.2-0.9-1.5-1.8
			c-0.5-1.2-0.6-2.5-0.2-3.9l1.4,0.4c-0.3,1.1-0.3,2.1,0,3c0.2,0.4,0.4,0.7,0.7,0.9c0.3,0.2,0.6,0.2,0.9,0.1
			c0.3-0.1,0.5-0.4,0.6-0.7c0.1-0.3,0-0.8-0.1-1.4c-0.1-0.6-0.2-1.1-0.2-1.5c0-0.4,0-0.7,0.1-1c0.2-0.6,0.6-1.1,1.3-1.4
			c0.7-0.3,1.4-0.3,2,0.1c0.6,0.4,1.1,0.9,1.5,1.7c0.2,0.5,0.4,1,0.4,1.6c0.1,0.6,0,1.1-0.1,1.6L26.9,86c0.1-0.3,0.1-0.7,0.1-1.2
			C27,84.4,26.9,84,26.7,83.6"/>
		<polygon class="st0" points="24,94.3 23.2,93 26.1,91.2 28.8,85.7 29.6,87 27.6,91.1 32.2,91 33,92.3 26.9,92.5 		"/>
		<path class="st0" d="M33.9,94.9c-0.3-0.3-0.6-0.5-0.9-0.6c-0.3-0.1-0.6,0-0.9,0.2c-0.3,0.2-0.4,0.5-0.3,0.8c0,0.3,0.3,0.9,0.7,1.7
			c0.4,0.8,0.6,1.5,0.7,2.1c0,0.6-0.3,1.1-0.8,1.6c-0.6,0.5-1.2,0.7-1.9,0.6c-0.7-0.1-1.4-0.5-2-1.2c-0.9-1-1.3-2.2-1.3-3.6l1.4,0
			c0,1.2,0.3,2.1,1,2.8c0.3,0.4,0.6,0.6,1,0.6c0.3,0.1,0.6,0,0.9-0.2c0.2-0.2,0.4-0.5,0.3-0.8c0-0.3-0.2-0.8-0.5-1.3
			c-0.3-0.6-0.5-1-0.7-1.4c-0.1-0.3-0.2-0.7-0.2-1c0-0.6,0.2-1.2,0.8-1.8c0.6-0.5,1.3-0.7,2-0.6c0.7,0.1,1.4,0.5,1.9,1.2
			c0.4,0.4,0.7,0.9,0.9,1.4c0.2,0.5,0.3,1.1,0.4,1.6l-1.3,0.1c0-0.3-0.1-0.7-0.3-1.2C34.5,95.6,34.2,95.2,33.9,94.9"/>
		<polygon class="st0" points="39.3,100.2 34.6,105.9 33.5,105 38.1,99.3 36.1,97.6 36.9,96.6 42.1,100.9 41.3,101.9 		"/>
		<polygon class="st0" points="47.8,104.2 47.1,105.4 43.1,103.1 42,105 45.6,107.1 44.9,108.3 41.3,106.2 40.1,108.2 44.3,110.6 
			43.6,111.8 38.2,108.6 42.6,101.1 		"/>
		<polygon class="st0" points="47.1,113.4 45.7,112.9 48.4,104.7 50.6,105.4 51.4,111.4 55.6,107 57.7,107.7 55,116 53.6,115.5 
			55.7,109.1 51,113.8 50.2,113.6 49.2,106.9 		"/>
		<path class="st0" d="M65.1,115.6c0.5,0,0.9-0.1,1.3-0.2c0.4-0.2,0.8-0.4,1.2-0.8l0.9,1c-0.9,1-2.1,1.5-3.4,1.4
			c-1.3,0-2.4-0.5-3.2-1.4c-0.8-0.9-1.2-1.9-1.2-3.2c0-1.3,0.5-2.4,1.4-3.2c0.9-0.8,2-1.2,3.4-1.2c1.3,0,2.5,0.6,3.3,1.6l-1,1
			c-0.4-0.4-0.8-0.7-1.1-0.9c-0.4-0.2-0.8-0.3-1.3-0.3c-0.9,0-1.6,0.2-2.2,0.8c-0.6,0.6-0.9,1.3-1,2.1c0,0.9,0.2,1.6,0.8,2.2
			C63.6,115.2,64.3,115.6,65.1,115.6"/>
		<polygon class="st0" points="75.4,107.3 75.6,108.7 71,109.3 71.4,111.6 75.5,111 75.7,112.3 71.5,112.9 71.9,115.2 76.6,114.5 
			76.8,115.9 70.6,116.8 69.4,108.2 		"/>
		<path class="st0" d="M83.7,107.6c0.5,1.4,0.2,2.4-0.9,3.2l3.2,2.3l-1.8,0.6l-2.9-2.1l-1.8,0.6l0.9,2.8l-1.4,0.5l-2.8-8.2l3.1-1
			c1.3-0.4,2.2-0.5,2.9-0.3C82.9,106,83.4,106.6,83.7,107.6 M82.2,109.4c0.2-0.3,0.2-0.8,0-1.3c-0.2-0.5-0.5-0.9-0.8-1
			c-0.4-0.1-0.9,0-1.7,0.2l-1.8,0.6l1,2.9l1.7-0.6C81.5,110,82,109.7,82.2,109.4"/>
		<polygon class="st0" points="87,104.1 90.5,110.6 89.2,111.3 85.7,104.8 83.4,106 82.8,104.9 88.7,101.7 89.3,102.9 		"/>
		
			<rect x="91.5" y="100" transform="matrix(0.8204 -0.5718 0.5718 0.8204 -43.1141 71.4692)" class="st0" width="1.5" height="8.7"/>
		<polygon class="st0" points="93.5,99.6 95.1,101.4 98,98.9 98.9,99.9 96,102.5 98.4,105.1 97.3,106.1 91.5,99.6 95.9,95.8 
			96.8,96.8 		"/>
		
			<rect x="99.3" y="93.2" transform="matrix(0.6728 -0.7398 0.7398 0.6728 -39.4374 105.896)" class="st0" width="1.5" height="8.7"/>
		<polygon class="st0" points="101.8,88.1 102.9,88.9 100.2,92.7 102.1,94 104.5,90.6 105.6,91.4 103.2,94.7 105.1,96.1 107.8,92.2 
			109,93 105.3,98.1 98.3,93.1 		"/>
		<path class="st0" d="M106,81.9c1-0.4,2.2-0.4,3.4,0.2c1.2,0.6,2,1.4,2.4,2.4c0.4,1.1,0.2,2.4-0.5,3.9l-1.2,2.6l-7.9-3.6l1.3-2.7
			C104.2,83.3,105,82.3,106,81.9 M108.9,83.5c-1.8-0.8-3.2-0.2-4.1,1.8l-0.6,1.3l5.4,2.5l0.7-1.5c0.4-1,0.6-1.8,0.3-2.5
			C110.3,84.4,109.7,83.9,108.9,83.5"/>
		<path class="st0" d="M34.4,33.9l1.4-1.6l3.2,2.8c0.2,1.7-0.4,3.4-1.9,5.1c-1.2,1.4-2.7,2.1-4.4,2.3c-1.7,0.1-3.3-0.4-4.7-1.7
			c-1.4-1.2-2.1-2.7-2.2-4.5c-0.1-1.8,0.5-3.3,1.6-4.7c1.2-1.3,2.6-2.1,4.1-2.3l0.5,1.9c-0.6,0.1-1.2,0.3-1.6,0.5
			c-0.4,0.3-0.9,0.6-1.3,1.1c-0.8,0.9-1.2,2-1.2,3.2c0,1.2,0.6,2.2,1.6,3.1c1,0.9,2.1,1.3,3.2,1.2c1.2-0.1,2.1-0.6,2.9-1.5
			c0.8-0.9,1.2-1.8,1.4-2.7L34.4,33.9z"/>
		
			<rect x="37.2" y="23.5" transform="matrix(0.7948 -0.6069 0.6069 0.7948 -10.4552 29.3437)" class="st0" width="2" height="13.3"/>
		<path class="st0" d="M50.5,29c-0.4,1.3-1.3,2.2-2.5,2.9c-1.3,0.7-2.5,0.8-3.8,0.4c-1.3-0.4-2.2-1.2-2.9-2.4
			c-0.6-1.2-0.7-2.5-0.3-3.7c0.4-1.3,1.3-2.2,2.5-2.9c1.3-0.7,2.5-0.8,3.8-0.4c1.3,0.4,2.2,1.2,2.9,2.4C50.9,26.4,51,27.7,50.5,29
			 M44.9,30.5c0.8,0.3,1.5,0.2,2.3-0.2c0.8-0.4,1.3-1,1.5-1.8c0.2-0.8,0.1-1.6-0.3-2.4c-0.4-0.8-1-1.3-1.8-1.6
			c-0.8-0.3-1.5-0.2-2.3,0.2c-0.8,0.4-1.3,1-1.5,1.8c-0.2,0.8-0.1,1.6,0.3,2.4C43.5,29.7,44.1,30.2,44.9,30.5"/>
		<path class="st0" d="M55.9,18.8c1.2-0.3,2.4-0.1,3.5,0.6c1.1,0.7,1.8,1.7,2.1,3.1c0.3,1.4,0.1,2.7-0.5,3.8c-0.7,1.1-1.6,1.8-2.8,2
			c-1.2,0.3-2.3,0-3.5-0.8l0.3,1.4l-2,0.4l-2.9-12.9l2-0.4l1.2,5.3C53.8,19.8,54.7,19,55.9,18.8 M53.9,24.2c0.2,0.9,0.6,1.5,1.3,2
			c0.7,0.4,1.4,0.6,2.1,0.4c0.8-0.2,1.4-0.6,1.8-1.3c0.4-0.7,0.6-1.5,0.4-2.4c-0.2-0.9-0.6-1.6-1.3-2c-0.7-0.5-1.4-0.6-2.2-0.4
			c-0.8,0.2-1.4,0.6-1.8,1.3C53.8,22.5,53.7,23.3,53.9,24.2"/>
		<path class="st0" d="M70.9,27.5l-1.8,0l0-1.3c-0.8,0.9-1.9,1.4-3.2,1.3c-1,0-1.8-0.3-2.4-0.9c-0.6-0.6-0.9-1.3-0.9-2.3
			c0-0.9,0.4-1.6,1.1-2.1c0.7-0.4,1.6-0.7,2.8-0.6l2.6,0.1l0-0.4c0-1.3-0.7-1.9-2.1-1.9c-0.9,0-1.8,0.3-2.8,0.9L63.4,19
			c1.2-0.9,2.5-1.3,4-1.3c1.1,0,2,0.3,2.7,0.9c0.7,0.6,1,1.5,1,2.7L70.9,27.5z M69,23.9l0-0.8L66.8,23c-1.4,0-2.2,0.4-2.2,1.3
			c0,0.5,0.2,0.8,0.5,1.1c0.4,0.3,0.8,0.4,1.5,0.4c0.6,0,1.2-0.1,1.7-0.5C68.7,25,69,24.5,69,23.9"/>
		<rect x="67.9" y="20.5" transform="matrix(0.1849 -0.9828 0.9828 0.1849 39.5942 90.7796)" class="st0" width="13.3" height="2"/>
		<path class="st0" d="M82.1,20c-0.3,0.1-0.6,0.3-0.7,0.7c-0.1,0.3-0.1,0.7,0.2,1c0.2,0.3,0.8,0.8,1.9,1.5c1,0.7,1.7,1.4,2.1,2.2
			c0.4,0.8,0.4,1.7,0,2.7c-0.4,1-1.1,1.8-2.1,2.1c-1,0.4-2.2,0.3-3.5-0.2c-1.9-0.7-3.3-2-4.2-3.9l2.3-1.3c0.8,1.6,1.8,2.6,2.9,3
			c0.5,0.2,0.9,0.2,1.2,0.1c0.4-0.1,0.6-0.3,0.7-0.7c0.1-0.4,0.1-0.7-0.1-1c-0.2-0.3-0.7-0.7-1.5-1.3c-1.2-0.8-2.1-1.6-2.5-2.4
			c-0.4-0.8-0.4-1.7,0-2.8c0.4-1.1,1.1-1.8,2.2-2.1c1-0.3,2.1-0.2,3.3,0.2c0.8,0.3,1.5,0.7,2.2,1.3c0.7,0.6,1.2,1.2,1.6,1.9l-2,1.4
			c-0.7-1.1-1.6-1.9-2.7-2.3C82.8,20,82.4,19.9,82.1,20"/>
		<polygon class="st0" points="94.5,26.3 88.9,34.7 86.6,33.2 92.2,24.8 89.2,22.8 90.6,20.8 98.8,26.3 97.4,28.3 		"/>
		<path class="st0" d="M106.3,36.6c0,1.6-0.8,3.1-2.2,4.4c-1.5,1.3-3,1.9-4.6,1.8c-1.6-0.1-3.2-1.1-4.8-2.9l-2.8-3.2l9.3-8.3
			l2.9,3.3C105.6,33.3,106.4,35,106.3,36.6 M99.4,40c0.9,0.1,1.9-0.3,2.8-1.1c0.9-0.8,1.4-1.7,1.4-2.6c0-1-0.4-2-1.3-3l-1-1.2
			l-5.7,5l1.2,1.3C97.6,39.3,98.5,39.9,99.4,40"/>
		<path class="st0" d="M98.9,77.4c-4.3-5-15.7-4.5-26.7,1.4c-10.7,5.8-17.3,14.7-15.9,21.1c3.1,0.9,6.4,1.4,9.7,1.4
			C81.4,101.3,94.4,91.3,98.9,77.4"/>
		<path class="st0" d="M38.1,87.1c3.1,4.2,7.1,7.7,11.7,10.1c0-8.8,6.4-19.3,17.2-26.5c12-8.1,25.7-9.6,33.6-4.6
			c-0.1-7-2.3-13.5-6-19c-10.5-1.9-22.1-0.4-32.5,4.9C47,59.8,38.3,73.5,38.1,87.1"/>
		<path class="st0" d="M62.5,41.6c7.1-3,14.3-4.5,21.4-4.7C78.6,33.8,72.5,32,66,32c-19.1,0-34.6,15.5-34.6,34.6
			c0,5.6,1.3,10.9,3.7,15.5C35.4,65.3,45.6,48.7,62.5,41.6"/>
		<path class="st0" d="M66,6.9C33,6.9,6.3,33.6,6.3,66.6S33,126.3,66,126.3s59.7-26.7,59.7-59.7S99,6.9,66,6.9 M66,123.7
			c-31.5,0-57.1-25.6-57.1-57.1C8.9,35.1,34.5,9.6,66,9.6c31.5,0,57.1,25.6,57.1,57.1C123.1,98.1,97.5,123.7,66,123.7"/>
	</g>
</g>
</svg>
